<svg width="26" height="26" viewBox="0 0 26 26" fill="none" xmlns="http://www.w3.org/2000/svg">
<g filter="url(#filter0_d_271_565)">
<circle cx="13" cy="13" r="12" fill="white"/>
</g>
<mask id="mask0_271_565" style="mask-type:luminance" maskUnits="userSpaceOnUse" x="5" y="5" width="15" height="16">
<path d="M19.8332 11.6667H12.9998V14.5H16.9332C16.5665 16.3 15.0332 17.3334 12.9998 17.3334C10.5998 17.3334 8.6665 15.4 8.6665 13C8.6665 10.6 10.5998 8.66669 12.9998 8.66669C14.0332 8.66669 14.9665 9.03335 15.6998 9.63335L17.8332 7.50002C16.5332 6.36669 14.8665 5.66669 12.9998 5.66669C8.93317 5.66669 5.6665 8.93335 5.6665 13C5.6665 17.0667 8.93317 20.3334 12.9998 20.3334C16.6665 20.3334 19.9998 17.6667 19.9998 13C19.9998 12.5667 19.9332 12.1 19.8332 11.6667Z" fill="white"/>
</mask>
<g mask="url(#mask0_271_565)">
<path d="M5 17.3334V8.66669L10.6667 13L5 17.3334Z" fill="#FBBC05"/>
</g>
<mask id="mask1_271_565" style="mask-type:luminance" maskUnits="userSpaceOnUse" x="5" y="5" width="15" height="16">
<path d="M19.8332 11.6667H12.9998V14.5H16.9332C16.5665 16.3 15.0332 17.3334 12.9998 17.3334C10.5998 17.3334 8.6665 15.4 8.6665 13C8.6665 10.6 10.5998 8.66669 12.9998 8.66669C14.0332 8.66669 14.9665 9.03335 15.6998 9.63335L17.8332 7.50002C16.5332 6.36669 14.8665 5.66669 12.9998 5.66669C8.93317 5.66669 5.6665 8.93335 5.6665 13C5.6665 17.0667 8.93317 20.3334 12.9998 20.3334C16.6665 20.3334 19.9998 17.6667 19.9998 13C19.9998 12.5667 19.9332 12.1 19.8332 11.6667Z" fill="white"/>
</mask>
<g mask="url(#mask1_271_565)">
<path d="M5 8.66667L10.6667 13L13 10.9667L21 9.66667V5H5V8.66667Z" fill="#EA4335"/>
</g>
<mask id="mask2_271_565" style="mask-type:luminance" maskUnits="userSpaceOnUse" x="5" y="5" width="15" height="16">
<path d="M19.8332 11.6667H12.9998V14.5H16.9332C16.5665 16.3 15.0332 17.3334 12.9998 17.3334C10.5998 17.3334 8.6665 15.4 8.6665 13C8.6665 10.6 10.5998 8.66669 12.9998 8.66669C14.0332 8.66669 14.9665 9.03335 15.6998 9.63335L17.8332 7.50002C16.5332 6.36669 14.8665 5.66669 12.9998 5.66669C8.93317 5.66669 5.6665 8.93335 5.6665 13C5.6665 17.0667 8.93317 20.3334 12.9998 20.3334C16.6665 20.3334 19.9998 17.6667 19.9998 13C19.9998 12.5667 19.9332 12.1 19.8332 11.6667Z" fill="white"/>
</mask>
<g mask="url(#mask2_271_565)">
<path d="M5 17.3333L15 9.66667L17.6333 10L21 5V21H5V17.3333Z" fill="#34A853"/>
</g>
<mask id="mask3_271_565" style="mask-type:luminance" maskUnits="userSpaceOnUse" x="5" y="5" width="15" height="16">
<path d="M19.8332 11.6667H12.9998V14.5H16.9332C16.5665 16.3 15.0332 17.3334 12.9998 17.3334C10.5998 17.3334 8.6665 15.4 8.6665 13C8.6665 10.6 10.5998 8.66669 12.9998 8.66669C14.0332 8.66669 14.9665 9.03335 15.6998 9.63335L17.8332 7.50002C16.5332 6.36669 14.8665 5.66669 12.9998 5.66669C8.93317 5.66669 5.6665 8.93335 5.6665 13C5.6665 17.0667 8.93317 20.3334 12.9998 20.3334C16.6665 20.3334 19.9998 17.6667 19.9998 13C19.9998 12.5667 19.9332 12.1 19.8332 11.6667Z" fill="white"/>
</mask>
<g mask="url(#mask3_271_565)">
<path d="M20.9997 21L10.6663 13L9.33301 12L20.9997 8.66669V21Z" fill="#4285F4"/>
</g>
<defs>
<filter id="filter0_d_271_565" x="0" y="0" width="26" height="26" filterUnits="userSpaceOnUse" color-interpolation-filters="sRGB">
<feFlood flood-opacity="0" result="BackgroundImageFix"/>
<feColorMatrix in="SourceAlpha" type="matrix" values="0 0 0 0 0 0 0 0 0 0 0 0 0 0 0 0 0 0 127 0" result="hardAlpha"/>
<feOffset/>
<feGaussianBlur stdDeviation="0.5"/>
<feComposite in2="hardAlpha" operator="out"/>
<feColorMatrix type="matrix" values="0 0 0 0 0 0 0 0 0 0 0 0 0 0 0 0 0 0 0.25 0"/>
<feBlend mode="normal" in2="BackgroundImageFix" result="effect1_dropShadow_271_565"/>
<feBlend mode="normal" in="SourceGraphic" in2="effect1_dropShadow_271_565" result="shape"/>
</filter>
</defs>
</svg>
