<svg width="23" height="24" viewBox="0 0 23 24" fill="none" xmlns="http://www.w3.org/2000/svg">
<mask id="path-1-outside-1_4009_457" maskUnits="userSpaceOnUse" x="0.166626" y="-0.266602" width="23" height="24" fill="black">
<rect fill="white" x="0.166626" y="-0.266602" width="23" height="24"/>
<path d="M22.2072 11.639C22.1104 8.47862 19.5561 6.18382 19.4603 6.09998L17.0102 3.64156C16.9565 3.58792 16.8843 3.55772 16.8085 3.55772H16.8082C16.7321 3.55772 16.6598 3.58767 16.6065 3.64123L15.8654 4.38183L15.0247 3.54127L15.7655 2.80043C15.8769 2.68883 15.8769 2.50861 15.7655 2.39701L14.1857 0.816998C14.1321 0.763354 14.0599 0.733398 13.9842 0.733398C13.9085 0.733398 13.8357 0.763354 13.7825 0.816998L9.91245 4.687C9.80101 4.79861 9.80101 4.97899 9.91245 5.09043L11.4925 6.67052C11.5462 6.72417 11.6186 6.75404 11.6943 6.75404C11.7699 6.75404 11.8426 6.72408 11.896 6.67052L12.6382 5.92822L13.4792 6.76894L12.8711 7.37676C12.7596 7.48837 12.7596 7.66851 12.8711 7.78011L13.57 8.47886L1.43412 20.6144C1.39188 20.6567 1.3699 20.713 1.3642 20.7721C1.02451 21.3855 1.12879 22.1655 1.6312 22.6674C1.93173 22.9677 2.33125 23.1333 2.75617 23.1333C3.02122 23.1333 3.27877 23.0681 3.50898 22.9445C3.57516 22.9389 3.63824 22.9102 3.68619 22.8619L3.85721 22.6887C3.86389 22.6832 3.87073 22.6775 3.87732 22.6709C3.88009 22.6686 3.88269 22.6658 3.8853 22.6636C3.8853 22.6636 10.8014 15.7311 15.8026 10.7128L17.1737 12.0843C19.8904 14.8006 19.4637 16.4085 19.4545 16.4409C19.4146 16.5654 19.4645 16.7011 19.5759 16.7702C19.6224 16.7991 19.6745 16.8128 19.7261 16.8128C19.7996 16.8128 19.8729 16.784 19.9278 16.7293C21.4955 15.1608 22.2622 13.4485 22.2072 11.639ZM11.6939 6.06538L10.5172 4.88872L13.9841 1.42238L15.1605 2.59905L11.6939 6.06538ZM3.48301 22.2582C3.48301 22.2582 3.48276 22.2582 3.48276 22.2585C3.47943 22.2618 3.47625 22.2646 3.4734 22.2674L3.37548 22.3651C3.35504 22.3727 3.33535 22.3827 3.3167 22.3949C2.92516 22.654 2.36911 22.5983 2.0343 22.2634C1.69445 21.9242 1.63861 21.386 1.90153 20.9845C1.91407 20.9653 1.92441 20.9447 1.93149 20.9236L13.8384 9.01685L15.2649 10.4431C10.3212 15.4035 3.60625 22.1348 3.48301 22.2582ZM13.042 5.52536L14.6215 3.94486L15.4619 4.78485L14.6761 5.57127L13.8822 6.36518L13.042 5.52536ZM20.0327 15.7767C19.9299 14.9466 19.4318 13.5348 17.5771 11.6801L13.476 7.5784L14.0827 6.97171C14.0833 6.97138 14.0839 6.97114 14.0845 6.97081L14.8686 6.1861L16.8083 4.24686L19.0697 6.51529C19.0943 6.53735 21.5479 8.74025 21.6373 11.6567C21.681 13.0969 21.142 14.4802 20.0327 15.7767Z"/>
</mask>
<path d="M22.2072 11.639C22.1104 8.47862 19.5561 6.18382 19.4603 6.09998L17.0102 3.64156C16.9565 3.58792 16.8843 3.55772 16.8085 3.55772H16.8082C16.7321 3.55772 16.6598 3.58767 16.6065 3.64123L15.8654 4.38183L15.0247 3.54127L15.7655 2.80043C15.8769 2.68883 15.8769 2.50861 15.7655 2.39701L14.1857 0.816998C14.1321 0.763354 14.0599 0.733398 13.9842 0.733398C13.9085 0.733398 13.8357 0.763354 13.7825 0.816998L9.91245 4.687C9.80101 4.79861 9.80101 4.97899 9.91245 5.09043L11.4925 6.67052C11.5462 6.72417 11.6186 6.75404 11.6943 6.75404C11.7699 6.75404 11.8426 6.72408 11.896 6.67052L12.6382 5.92822L13.4792 6.76894L12.8711 7.37676C12.7596 7.48837 12.7596 7.66851 12.8711 7.78011L13.57 8.47886L1.43412 20.6144C1.39188 20.6567 1.3699 20.713 1.3642 20.7721C1.02451 21.3855 1.12879 22.1655 1.6312 22.6674C1.93173 22.9677 2.33125 23.1333 2.75617 23.1333C3.02122 23.1333 3.27877 23.0681 3.50898 22.9445C3.57516 22.9389 3.63824 22.9102 3.68619 22.8619L3.85721 22.6887C3.86389 22.6832 3.87073 22.6775 3.87732 22.6709C3.88009 22.6686 3.88269 22.6658 3.8853 22.6636C3.8853 22.6636 10.8014 15.7311 15.8026 10.7128L17.1737 12.0843C19.8904 14.8006 19.4637 16.4085 19.4545 16.4409C19.4146 16.5654 19.4645 16.7011 19.5759 16.7702C19.6224 16.7991 19.6745 16.8128 19.7261 16.8128C19.7996 16.8128 19.8729 16.784 19.9278 16.7293C21.4955 15.1608 22.2622 13.4485 22.2072 11.639ZM11.6939 6.06538L10.5172 4.88872L13.9841 1.42238L15.1605 2.59905L11.6939 6.06538ZM3.48301 22.2582C3.48301 22.2582 3.48276 22.2582 3.48276 22.2585C3.47943 22.2618 3.47625 22.2646 3.4734 22.2674L3.37548 22.3651C3.35504 22.3727 3.33535 22.3827 3.3167 22.3949C2.92516 22.654 2.36911 22.5983 2.0343 22.2634C1.69445 21.9242 1.63861 21.386 1.90153 20.9845C1.91407 20.9653 1.92441 20.9447 1.93149 20.9236L13.8384 9.01685L15.2649 10.4431C10.3212 15.4035 3.60625 22.1348 3.48301 22.2582ZM13.042 5.52536L14.6215 3.94486L15.4619 4.78485L14.6761 5.57127L13.8822 6.36518L13.042 5.52536ZM20.0327 15.7767C19.9299 14.9466 19.4318 13.5348 17.5771 11.6801L13.476 7.5784L14.0827 6.97171C14.0833 6.97138 14.0839 6.97114 14.0845 6.97081L14.8686 6.1861L16.8083 4.24686L19.0697 6.51529C19.0943 6.53735 21.5479 8.74025 21.6373 11.6567C21.681 13.0969 21.142 14.4802 20.0327 15.7767Z" fill="#3B3B3B"/>
<path d="M22.2072 11.639C22.1104 8.47862 19.5561 6.18382 19.4603 6.09998L17.0102 3.64156C16.9565 3.58792 16.8843 3.55772 16.8085 3.55772H16.8082C16.7321 3.55772 16.6598 3.58767 16.6065 3.64123L15.8654 4.38183L15.0247 3.54127L15.7655 2.80043C15.8769 2.68883 15.8769 2.50861 15.7655 2.39701L14.1857 0.816998C14.1321 0.763354 14.0599 0.733398 13.9842 0.733398C13.9085 0.733398 13.8357 0.763354 13.7825 0.816998L9.91245 4.687C9.80101 4.79861 9.80101 4.97899 9.91245 5.09043L11.4925 6.67052C11.5462 6.72417 11.6186 6.75404 11.6943 6.75404C11.7699 6.75404 11.8426 6.72408 11.896 6.67052L12.6382 5.92822L13.4792 6.76894L12.8711 7.37676C12.7596 7.48837 12.7596 7.66851 12.8711 7.78011L13.57 8.47886L1.43412 20.6144C1.39188 20.6567 1.3699 20.713 1.3642 20.7721C1.02451 21.3855 1.12879 22.1655 1.6312 22.6674C1.93173 22.9677 2.33125 23.1333 2.75617 23.1333C3.02122 23.1333 3.27877 23.0681 3.50898 22.9445C3.57516 22.9389 3.63824 22.9102 3.68619 22.8619L3.85721 22.6887C3.86389 22.6832 3.87073 22.6775 3.87732 22.6709C3.88009 22.6686 3.88269 22.6658 3.8853 22.6636C3.8853 22.6636 10.8014 15.7311 15.8026 10.7128L17.1737 12.0843C19.8904 14.8006 19.4637 16.4085 19.4545 16.4409C19.4146 16.5654 19.4645 16.7011 19.5759 16.7702C19.6224 16.7991 19.6745 16.8128 19.7261 16.8128C19.7996 16.8128 19.8729 16.784 19.9278 16.7293C21.4955 15.1608 22.2622 13.4485 22.2072 11.639ZM11.6939 6.06538L10.5172 4.88872L13.9841 1.42238L15.1605 2.59905L11.6939 6.06538ZM3.48301 22.2582C3.48301 22.2582 3.48276 22.2582 3.48276 22.2585C3.47943 22.2618 3.47625 22.2646 3.4734 22.2674L3.37548 22.3651C3.35504 22.3727 3.33535 22.3827 3.3167 22.3949C2.92516 22.654 2.36911 22.5983 2.0343 22.2634C1.69445 21.9242 1.63861 21.386 1.90153 20.9845C1.91407 20.9653 1.92441 20.9447 1.93149 20.9236L13.8384 9.01685L15.2649 10.4431C10.3212 15.4035 3.60625 22.1348 3.48301 22.2582ZM13.042 5.52536L14.6215 3.94486L15.4619 4.78485L14.6761 5.57127L13.8822 6.36518L13.042 5.52536ZM20.0327 15.7767C19.9299 14.9466 19.4318 13.5348 17.5771 11.6801L13.476 7.5784L14.0827 6.97171C14.0833 6.97138 14.0839 6.97114 14.0845 6.97081L14.8686 6.1861L16.8083 4.24686L19.0697 6.51529C19.0943 6.53735 21.5479 8.74025 21.6373 11.6567C21.681 13.0969 21.142 14.4802 20.0327 15.7767Z" stroke="#3B3B3B" stroke-width="0.6" mask="url(#path-1-outside-1_4009_457)"/>
</svg>