<svg width="34" height="28" viewBox="0 0 34 28" fill="none" xmlns="http://www.w3.org/2000/svg">
<path d="M30.4271 2.02648L30.5372 1.9191L30.4271 1.81172L29.4848 0.89262L29.38 0.790464L29.2753 0.89262L24.6863 5.36852C22.3459 4.1731 19.7491 3.45 17.0073 3.45C10.1875 3.45 4.11355 8.00565 0.871615 13.3712L0.825305 13.4479L0.8708 13.525C2.60307 16.4619 5.14212 19.3857 8.15936 21.4884L3.56093 25.9735L3.45076 26.081L3.56101 26.1884L4.50465 27.1075L4.60939 27.2095L4.71405 27.1074L30.4271 2.02648ZM27.1237 6.83945L27.0217 6.76711L26.9322 6.85442L25.9539 7.80862L25.8248 7.93451L25.9721 8.03853C28.8469 10.0688 30.6685 12.5464 31.2944 13.4774C30.7611 14.3815 29.2741 16.6951 26.9215 18.8098C24.4955 20.9904 21.1599 22.95 17.0073 22.95C15.1338 22.95 13.3906 22.4782 11.8043 21.7445L11.7105 21.7011L11.6366 21.7732L10.6396 22.7456L10.4874 22.894L10.6783 22.9877C12.6607 23.9604 14.7918 24.55 17.0073 24.55C24.1119 24.55 30.1307 19.2913 33.1332 13.5023L33.1714 13.4286L33.1292 13.357C31.6698 10.8807 29.5988 8.59508 27.1237 6.83945ZM21.7981 11.862L21.7239 11.9344L21.7653 12.0293C22.0292 12.6349 22.1753 13.3009 22.1753 14C22.1753 16.7841 19.8576 19.05 16.994 19.05C16.2759 19.05 15.5929 18.9059 14.9709 18.648L14.8795 18.6101L14.8086 18.6793L13.8303 19.6348L13.6806 19.781L13.8672 19.8758C14.8062 20.353 15.8583 20.65 16.994 20.65C20.7519 20.65 23.8082 17.673 23.8082 14C23.8082 12.8904 23.5045 11.86 23.0133 10.9443L22.9191 10.7686L22.7764 10.9078L21.7981 11.862ZM10.1798 14C10.1798 15.5484 10.7388 16.9584 11.6533 18.0805L9.3547 20.3225C5.87902 17.9328 3.49745 14.6148 2.73733 13.4612C3.32443 12.612 4.86595 10.5619 7.22697 8.6982C9.66814 6.7712 12.9767 5.05 17.0073 5.05C19.4468 5.05 21.6009 5.66321 23.4614 6.56331L21.1795 8.78899C20.0285 7.89472 18.5824 7.35 16.994 7.35C13.2374 7.35 10.1798 10.3256 10.1798 14ZM16.994 8.95C18.129 8.95 19.1675 9.3161 20.0154 9.9244L12.8161 16.9464C12.1899 16.1176 11.8127 15.1043 11.8127 14C11.8127 11.216 14.1317 8.95 16.994 8.95Z" fill="#3B3B3B" stroke="#3B3B3B" stroke-width="0.3"/>
</svg>
