<svg width="70" height="77.368" viewBox="0 0 70 77.368" fill="none" xmlns="http://www.w3.org/2000/svg">
  <path d="M35.12 63.356c-13.035 -0.061 -23.591 -10.688 -23.53 -23.689 0.032 -6.722 6.508 -14.79 11.934 -20.374 5.58 -5.742 11.221 -10.103 11.851 -10.585 0.623 0.486 6.226 4.901 11.752 10.695 5.374 5.636 11.775 13.763 11.743 20.485 -0.061 13.002 -10.715 23.529 -23.75 23.468" fill="white"/>
  <path d="M35.123 62.741c-12.698 -0.06 -22.978 -10.412 -22.919 -23.072 0.015 -3.184 1.565 -6.761 3.846 -10.283 2.271 -3.508 5.216 -6.889 7.915 -9.666 4.942 -5.085 9.935 -9.083 11.408 -10.234 1.461 1.163 6.417 5.209 11.311 10.34 2.673 2.802 5.586 6.21 7.825 9.74 2.247 3.544 3.764 7.135 3.749 10.319 -0.059 12.66 -10.436 22.916 -23.133 22.857Z" stroke="white" stroke-width="1.2280701754385965"/>
</svg>
