<svg width="22" height="22" viewBox="0 0 22 22" fill="none" xmlns="http://www.w3.org/2000/svg">
<mask id="path-1-outside-1_316_749" maskUnits="userSpaceOnUse" x="5.20508" y="3.79468" width="12" height="13" fill="black">
<rect fill="white" x="5.20508" y="3.79468" width="12" height="13"/>
<path fill-rule="evenodd" clip-rule="evenodd" d="M13.2973 5.65464C12.7523 5.10032 11.9832 4.79468 11.0857 4.79468C10.1883 4.79468 9.41923 5.10032 8.87428 5.65464C8.32974 6.20852 8.03081 6.98842 8.03081 7.89724C8.03081 9.12078 8.56354 9.9094 9.22285 10.3828C9.35099 10.4747 9.48341 10.5546 9.617 10.6234C8.88019 10.8258 8.28192 11.1788 7.79482 11.6166C7.02461 12.3088 6.54724 13.1994 6.22562 13.9969C6.16736 14.1413 6.23724 14.3057 6.38172 14.3639C6.52618 14.4222 6.69052 14.3523 6.74878 14.2079C7.0549 13.4488 7.49211 12.6471 8.17189 12.0361C8.84485 11.4313 9.77031 10.9998 11.0857 10.9998C12.3155 10.9998 13.2033 11.3769 13.8623 11.9181C14.5268 12.4638 14.9743 13.1894 15.2949 13.9067C15.5088 14.3853 15.1334 14.9485 14.5441 14.9485H8.03557C7.8798 14.9485 7.75352 15.0748 7.75352 15.2306C7.75352 15.3863 7.8798 15.5126 8.03557 15.5126H14.5441C15.476 15.5126 16.2168 14.5868 15.8099 13.6766C15.4695 12.915 14.9771 12.1037 14.2203 11.4822C13.771 11.1132 13.234 10.8157 12.5909 10.6335C12.9349 10.4434 13.2176 10.191 13.4426 9.90494C13.9293 9.28606 14.1407 8.51784 14.1407 7.89724C14.1407 6.98842 13.8418 6.20852 13.2973 5.65464ZM12.895 6.0501C13.3209 6.4834 13.5766 7.11375 13.5766 7.89724C13.5766 8.40484 13.3997 9.04688 12.9992 9.55621C12.6063 10.0558 11.9932 10.4357 11.0857 10.4357C10.7187 10.4357 10.0855 10.3077 9.55186 9.92451C9.0327 9.55175 8.59492 8.93012 8.59492 7.89724C8.59492 7.11375 8.85056 6.4834 9.27654 6.0501C9.70209 5.61724 10.3194 5.35878 11.0857 5.35878C11.8521 5.35878 12.4694 5.61724 12.895 6.0501Z"/>
</mask>
<path fill-rule="evenodd" clip-rule="evenodd" d="M13.2973 5.65464C12.7523 5.10032 11.9832 4.79468 11.0857 4.79468C10.1883 4.79468 9.41923 5.10032 8.87428 5.65464C8.32974 6.20852 8.03081 6.98842 8.03081 7.89724C8.03081 9.12078 8.56354 9.9094 9.22285 10.3828C9.35099 10.4747 9.48341 10.5546 9.617 10.6234C8.88019 10.8258 8.28192 11.1788 7.79482 11.6166C7.02461 12.3088 6.54724 13.1994 6.22562 13.9969C6.16736 14.1413 6.23724 14.3057 6.38172 14.3639C6.52618 14.4222 6.69052 14.3523 6.74878 14.2079C7.0549 13.4488 7.49211 12.6471 8.17189 12.0361C8.84485 11.4313 9.77031 10.9998 11.0857 10.9998C12.3155 10.9998 13.2033 11.3769 13.8623 11.9181C14.5268 12.4638 14.9743 13.1894 15.2949 13.9067C15.5088 14.3853 15.1334 14.9485 14.5441 14.9485H8.03557C7.8798 14.9485 7.75352 15.0748 7.75352 15.2306C7.75352 15.3863 7.8798 15.5126 8.03557 15.5126H14.5441C15.476 15.5126 16.2168 14.5868 15.8099 13.6766C15.4695 12.915 14.9771 12.1037 14.2203 11.4822C13.771 11.1132 13.234 10.8157 12.5909 10.6335C12.9349 10.4434 13.2176 10.191 13.4426 9.90494C13.9293 9.28606 14.1407 8.51784 14.1407 7.89724C14.1407 6.98842 13.8418 6.20852 13.2973 5.65464ZM12.895 6.0501C13.3209 6.4834 13.5766 7.11375 13.5766 7.89724C13.5766 8.40484 13.3997 9.04688 12.9992 9.55621C12.6063 10.0558 11.9932 10.4357 11.0857 10.4357C10.7187 10.4357 10.0855 10.3077 9.55186 9.92451C9.0327 9.55175 8.59492 8.93012 8.59492 7.89724C8.59492 7.11375 8.85056 6.4834 9.27654 6.0501C9.70209 5.61724 10.3194 5.35878 11.0857 5.35878C11.8521 5.35878 12.4694 5.61724 12.895 6.0501Z" fill="black"/>
<path fill-rule="evenodd" clip-rule="evenodd" d="M13.2973 5.65464C12.7523 5.10032 11.9832 4.79468 11.0857 4.79468C10.1883 4.79468 9.41923 5.10032 8.87428 5.65464C8.32974 6.20852 8.03081 6.98842 8.03081 7.89724C8.03081 9.12078 8.56354 9.9094 9.22285 10.3828C9.35099 10.4747 9.48341 10.5546 9.617 10.6234C8.88019 10.8258 8.28192 11.1788 7.79482 11.6166C7.02461 12.3088 6.54724 13.1994 6.22562 13.9969C6.16736 14.1413 6.23724 14.3057 6.38172 14.3639C6.52618 14.4222 6.69052 14.3523 6.74878 14.2079C7.0549 13.4488 7.49211 12.6471 8.17189 12.0361C8.84485 11.4313 9.77031 10.9998 11.0857 10.9998C12.3155 10.9998 13.2033 11.3769 13.8623 11.9181C14.5268 12.4638 14.9743 13.1894 15.2949 13.9067C15.5088 14.3853 15.1334 14.9485 14.5441 14.9485H8.03557C7.8798 14.9485 7.75352 15.0748 7.75352 15.2306C7.75352 15.3863 7.8798 15.5126 8.03557 15.5126H14.5441C15.476 15.5126 16.2168 14.5868 15.8099 13.6766C15.4695 12.915 14.9771 12.1037 14.2203 11.4822C13.771 11.1132 13.234 10.8157 12.5909 10.6335C12.9349 10.4434 13.2176 10.191 13.4426 9.90494C13.9293 9.28606 14.1407 8.51784 14.1407 7.89724C14.1407 6.98842 13.8418 6.20852 13.2973 5.65464ZM12.895 6.0501C13.3209 6.4834 13.5766 7.11375 13.5766 7.89724C13.5766 8.40484 13.3997 9.04688 12.9992 9.55621C12.6063 10.0558 11.9932 10.4357 11.0857 10.4357C10.7187 10.4357 10.0855 10.3077 9.55186 9.92451C9.0327 9.55175 8.59492 8.93012 8.59492 7.89724C8.59492 7.11375 8.85056 6.4834 9.27654 6.0501C9.70209 5.61724 10.3194 5.35878 11.0857 5.35878C11.8521 5.35878 12.4694 5.61724 12.895 6.0501Z" stroke="black" stroke-width="0.6" mask="url(#path-1-outside-1_316_749)"/>
<circle cx="11" cy="11" r="10.4" stroke="#3B3B3B" stroke-width="1.2"/>
</svg>