<svg width="38" height="42" viewBox="0 0 38 42" fill="none" xmlns="http://www.w3.org/2000/svg">
<path d="M29.5868 21.5108C29.2395 27.3331 24.2048 31.8023 18.3034 31.4502C12.402 31.0982 7.93439 26.0621 8.28172 20.2398C8.62904 14.4175 13.6637 9.94829 19.5651 10.3003C25.4665 10.6524 29.9341 15.6885 29.5868 21.5108Z" fill="#D9D9D9" stroke="white" stroke-width="7"/>
<path d="M32.0824 21.6596C31.652 28.8731 25.4212 34.3793 18.1545 33.9458C10.8879 33.5123 5.35583 27.3044 5.78615 20.0909C6.21647 12.8775 12.4473 7.37128 19.714 7.80477C26.9807 8.23826 32.5127 14.4462 32.0824 21.6596Z" stroke="white" stroke-width="2"/>
<path d="M32.2194 21.6679C31.7844 28.9596 25.4862 34.5208 18.1463 34.083C10.8065 33.6451 5.21411 27.3746 5.64909 20.0829C6.08408 12.7912 12.3823 7.22999 19.7221 7.66785C27.062 8.10571 32.6544 14.3763 32.2194 21.6679Z" stroke="white"/>
<path d="M20.575 20.0027L29.9468 13.281C31.3126 15.2758 32.1293 17.6248 32.2707 20.0732L20.575 20.0027Z" fill="#3E84A8" stroke="white"/>
<path d="M31.6062 25.0586C31.246 26.1406 30.7601 27.1451 30.1712 28.0625L20.5695 21.0027L32.2907 21.0733C32.2675 22.3952 32.0464 23.7365 31.6062 25.0586Z" fill="#48466D" stroke="white"/>
<path d="M14.2557 33.3789C13.0252 32.9105 11.8432 32.2511 10.7525 31.3937C9.84209 30.678 8.88822 29.7451 8.1811 28.8454L18.0456 21.8113L14.2557 33.3789Z" fill="#3E84A8" stroke="white"/>
<path d="M19.9788 21.8094L29.6003 28.8837C28.0657 30.9218 26.0016 32.4585 23.6675 33.3434L19.9788 21.8094Z" fill="#ADECD8" stroke="white"/>
<path d="M6.23056 16.6183C5.87023 17.7006 5.65555 18.8024 5.57659 19.8915L17.5795 19.9989L8.0585 13.012C7.28823 14.0832 6.67171 15.2932 6.23056 16.6183Z" fill="#ADECD8" stroke="white"/>
<path d="M18.11 19.1742L14.6245 8.17384C12.333 8.95256 10.2558 10.3486 8.67317 12.2238L18.11 19.1742Z" fill="#44CED0" stroke="white"/>
<path d="M17.4785 20.9917L5.54171 20.891C5.54918 23.4445 6.2875 25.9332 7.62611 28.0434L17.4785 20.9917Z" fill="#48466D" stroke="white"/>
<path d="M19.9796 19.1995L29.3733 12.4607C27.8992 10.4593 25.938 9.21579 23.6013 8.32111L19.9796 19.1995Z" fill="#44CED0" stroke="white"/>
<path d="M19.0055 22.0425L15.1851 33.6765C17.6251 34.3642 20.1952 34.4041 22.7197 33.6617L19.0055 22.0425Z" fill="#44CED0" stroke="white"/>
<path d="M22.6585 7.98966L19.056 18.8806L15.5437 7.88654C16.7061 7.54911 17.6754 7.47499 19.0768 7.49967C20.2469 7.52028 21.5337 7.65856 22.6585 7.98966Z" fill="#ADECD8" stroke="white"/>
</svg>