<svg width="21" height="20" viewBox="0 0 21 20" fill="none" xmlns="http://www.w3.org/2000/svg">
<path d="M18.2447 15.197L16.6902 15.2019C16.584 15.2022 16.4847 15.249 16.4186 15.331C16.2644 15.5194 16.0992 15.7013 15.925 15.8743C15.2128 16.5918 14.3684 17.1644 13.4383 17.5605C12.4748 17.9711 11.4384 18.1835 10.391 18.1849C9.33186 18.1883 8.3052 17.9837 7.33982 17.5799C6.40728 17.1897 5.55919 16.6224 4.84247 15.9095C4.12447 15.199 3.55108 14.356 3.15406 13.4272C2.74193 12.4644 2.53303 11.4413 2.52967 10.3821C2.52631 9.32298 2.73091 8.29853 3.13471 7.33316C3.52535 6.40099 4.08876 5.56115 4.80733 4.84022C5.5259 4.11929 6.36215 3.55056 7.29403 3.154C8.25682 2.74408 9.28216 2.53297 10.3413 2.52961C11.4005 2.52625 12.4271 2.72863 13.3925 3.13464C14.3269 3.52527 15.1667 4.08868 15.8899 4.80504C16.0651 4.97917 16.2293 5.15997 16.3869 5.34521C16.4535 5.42681 16.5554 5.47292 16.6593 5.47259L18.2138 5.46766C18.3531 5.46722 18.4388 5.31216 18.3611 5.19521C16.6567 2.56484 13.6837 0.829621 10.3117 0.84917C5.01367 0.879256 0.779599 5.19353 0.849466 10.4848C0.919065 15.692 5.1735 19.882 10.3964 19.8654C13.7596 19.8548 16.7082 18.103 18.3937 15.4685C18.4685 15.351 18.384 15.1965 18.2447 15.197ZM20.1945 10.1868L17.049 7.72017C16.9315 7.62768 16.7615 7.71224 16.762 7.86039L16.7673 9.54091L9.82411 9.56295C9.72682 9.56326 9.64747 9.64311 9.64778 9.74041L9.65171 10.9787C9.65202 11.076 9.73187 11.1553 9.82917 11.155L16.7723 11.133L16.7777 12.8135C16.7781 12.9616 16.9509 13.0451 17.0656 12.9519L20.1954 10.4654C20.2165 10.4488 20.2335 10.4276 20.2452 10.4034C20.2569 10.3792 20.2629 10.3527 20.2628 10.3259C20.2628 10.299 20.2566 10.2725 20.2447 10.2484C20.2329 10.2243 20.2157 10.2032 20.1945 10.1868Z" fill="#848484"/>
</svg>
