<svg width="22" height="22" viewBox="0 0 22 22" fill="none" xmlns="http://www.w3.org/2000/svg">
<path d="M20.1836 5.50481C19.8254 5.37625 19.4322 5.56325 19.305 5.92075L18.7729 7.41056C18.15 6.00737 17.1662 4.774 15.9135 3.84587C11.9309 0.896496 6.25829 1.70225 3.27248 5.643C1.82735 7.55012 1.21823 9.90068 1.55717 12.2609C1.89748 14.6307 3.15148 16.7248 5.08817 18.1582C6.7086 19.3572 8.60748 19.9361 10.4905 19.9361C13.2412 19.9361 15.9596 18.7021 17.7306 16.3639C18.5144 15.3299 19.0513 14.1707 19.3249 12.9174C19.406 12.5469 19.1716 12.1804 18.8004 12.0993C18.4305 12.0196 18.0634 12.2519 17.9822 12.6239C17.7505 13.6806 17.2975 14.6596 16.6347 15.5341C14.102 18.8753 9.28879 19.5566 5.9056 17.0534C4.2666 15.84 3.20579 14.069 2.91773 12.0656C2.63104 10.0719 3.14667 8.08568 4.36767 6.4735C6.89973 3.13087 11.7109 2.44681 15.0954 4.95137C16.3205 5.85887 17.2404 7.11287 17.7375 8.53118L15.3745 7.60856C15.0219 7.47175 14.6224 7.645 14.4842 7.99906C14.346 8.35312 14.5214 8.75118 14.8747 8.88937L18.3521 10.2472C18.4339 10.2788 18.5185 10.2946 18.6017 10.2946C18.6134 10.2946 18.6237 10.2905 18.6354 10.2898C18.6615 10.2926 18.6876 10.3036 18.7137 10.3036C18.9956 10.3036 19.261 10.1282 19.3607 9.84706L20.5989 6.38412C20.7274 6.02593 20.5411 5.632 20.1836 5.50481Z" fill="#333333"/>
</svg>
