<svg width="241" height="194" viewBox="0 0 241 194" fill="none" xmlns="http://www.w3.org/2000/svg">
<path d="M185.359 100.642C183.323 134.774 153.843 160.816 119.477 158.765C85.11 156.715 58.9357 127.354 60.9718 93.2222C63.0079 59.0907 92.4873 33.049 126.854 35.0991C161.221 37.1493 187.395 66.511 185.359 100.642Z" fill="#D9D9D9" stroke="white" stroke-width="7"/>
<path d="M187.854 100.791C185.735 136.314 155.06 163.393 119.328 161.261C83.5958 159.129 56.3572 128.596 58.4763 93.0733C60.5954 57.5507 91.2709 30.472 127.003 32.6036C162.735 34.7352 189.973 65.2687 187.854 100.791Z" stroke="white" stroke-width="2"/>
<path d="M186.672 100.721C184.592 135.593 154.475 162.171 119.398 160.079C84.3217 157.986 57.578 128.016 59.6583 93.1438C61.7387 58.2716 91.8557 31.6932 126.932 33.7857C162.009 35.8782 188.752 65.8486 186.672 100.721Z" stroke="white"/>
<path d="M125.166 94.6693L174.731 59.1199C182.278 69.4837 186.64 82.0097 186.994 95.0418L125.166 94.6693Z" fill="#3E84A8" stroke="white"/>
<path d="M183.736 116.934C181.801 122.747 179.105 128.093 175.805 132.907L125.161 95.6693L187.013 96.0419C187.092 102.956 186.044 110.002 183.736 116.934Z" fill="#48466D" stroke="white"/>
<path d="M102.586 157.347C96.0578 155.084 89.7869 151.718 84.0478 147.206C79.2184 143.41 74.1158 138.318 70.6505 133.546L122.497 96.5762L102.586 157.347Z" fill="#3E84A8" stroke="white"/>
<path d="M124.57 96.4759L175.235 133.728C167.424 144.743 156.452 152.885 143.985 157.184L124.57 96.4759Z" fill="#ADECD8" stroke="white"/>
<path d="M62.4476 76.5907C60.5122 82.404 59.4558 88.336 59.2117 94.1696L122.504 94.7358L72.2813 57.8802C68.0778 63.3659 64.7566 69.6553 62.4476 76.5907Z" fill="#ADECD8" stroke="white"/>
<path d="M122.766 93.8217L104.336 35.658C92.0802 39.4305 80.9922 46.8722 72.8957 57.0918L122.766 93.8217Z" fill="#44CED0" stroke="white"/>
<path d="M122.015 95.6987L59.178 95.1689C58.8281 108.67 62.7719 121.885 70.1748 132.803L122.015 95.6987Z" fill="#48466D" stroke="white"/>
<path d="M124.516 93.9066L174.173 58.2837C166.587 47.2031 156.119 40.7594 143.704 36.2737L124.516 93.9066Z" fill="#44CED0" stroke="white"/>
<path d="M123.518 96.4434L103.44 157.588C116.185 161.555 129.766 161.82 143.037 157.502L123.518 96.4434Z" fill="#44CED0" stroke="white"/>
<path d="M123.86 33.0031C129.998 33.1112 136.916 33.9034 142.766 35.9245L123.701 93.5625L105.127 35.4229C111.584 33.3178 116.538 32.8742 123.86 33.0031Z" fill="#ADECD8" stroke="white"/>
<path d="M202.335 94.7191L23.3353 95.9312C26.1479 98.9615 31.6525 112.052 33.5811 113.507C35.5097 114.962 43.2242 120.982 46.8403 123.81C47.443 127.446 48.5279 136.052 48.0457 141.386C47.443 148.052 70.9481 159.568 72.7562 161.992C74.2026 163.931 104.699 171.285 119.766 174.719L198.719 155.931L202.335 94.7191Z" fill="white"/>
<path d="M2 94.6443L239.335 95.9733" stroke="#44CED0" stroke-width="3" stroke-linecap="round"/>
</svg>
