<svg width="22" height="21" viewBox="0 0 22 21" fill="none" xmlns="http://www.w3.org/2000/svg">
<g clip-path="url(#clip0_200_489)">
<path d="M5.88181 3.76529H16.1688V1.35944C16.1688 1.34564 16.1655 1.33185 16.1621 1.3215C16.157 1.30943 16.1485 1.29735 16.14 1.28873L16.1383 1.28701C16.1299 1.27666 16.118 1.26976 16.1061 1.26459C16.0942 1.25941 16.0807 1.25769 16.0671 1.25769H1.86058C1.84702 1.25769 1.83345 1.26114 1.82328 1.26459C1.81141 1.26803 1.79955 1.27666 1.78768 1.28701L1.78429 1.29045C1.77751 1.29908 1.77073 1.30943 1.76564 1.3215C1.76056 1.33357 1.75886 1.34564 1.75886 1.35944V15.8118C1.75886 15.8256 1.76225 15.8394 1.76734 15.8497L1.76903 15.8549C1.77412 15.8653 1.7809 15.8773 1.78938 15.886C1.79955 15.8963 1.81141 15.9032 1.82328 15.9084L1.82667 15.9101C1.83684 15.9136 1.84871 15.917 1.86058 15.917H4.57983V5.0898C4.57983 4.91217 4.61543 4.7397 4.67815 4.58449C4.74427 4.42237 4.8409 4.27578 4.96127 4.15333L4.96805 4.14643C5.08672 4.02743 5.22912 3.93086 5.38509 3.86532C5.53936 3.80151 5.7072 3.76529 5.88181 3.76529ZM9.37242 13.1335C9.21136 12.9851 9.12321 12.7834 9.11304 12.5764C9.10287 12.3712 9.17068 12.1625 9.31647 11.9987C9.46227 11.8348 9.66231 11.7451 9.86405 11.7348C10.0641 11.7244 10.2709 11.7934 10.432 11.9417L11.973 13.3646L15.4958 9.59108C15.6467 9.43069 15.8467 9.34618 16.0502 9.34101C16.2519 9.33583 16.457 9.40999 16.6147 9.56176C16.7724 9.71525 16.8554 9.91875 16.8605 10.1257C16.8656 10.3309 16.7927 10.5396 16.6435 10.7L12.3985 15.2444L12.3561 15.2116C12.2578 15.2599 12.151 15.2858 12.0425 15.291C11.8442 15.2979 11.6424 15.2306 11.4847 15.084L9.37242 13.1335ZM17.3674 3.76529H20.0867C20.2613 3.76529 20.4308 3.80151 20.5834 3.86704C20.7427 3.9343 20.8868 4.03261 21.0072 4.15506L21.014 4.16196C21.131 4.28268 21.2259 4.42582 21.2903 4.58449C21.3547 4.74143 21.3886 4.91217 21.3886 5.09153V19.5439C21.3886 19.7232 21.353 19.894 21.2903 20.0492C21.2242 20.2113 21.1276 20.3579 21.0072 20.4804C20.8868 20.6028 20.7444 20.7011 20.5834 20.7684C20.4291 20.8339 20.2613 20.8701 20.0867 20.8701H5.88181C5.7072 20.8701 5.53936 20.8339 5.38509 20.7701C5.22573 20.7028 5.08163 20.6045 4.96127 20.4821C4.8409 20.3596 4.74427 20.213 4.67815 20.0509C4.61373 19.894 4.57983 19.7232 4.57983 19.5456V17.1363H1.86058C1.68596 17.1363 1.51643 17.1001 1.36386 17.0346C1.2045 16.9673 1.0604 16.869 0.940034 16.7465C0.819669 16.6241 0.723037 16.4775 0.656921 16.3154C0.594195 16.1602 0.558594 15.9894 0.558594 15.8118V1.35944C0.558594 1.18008 0.594195 1.00934 0.656921 0.854124C0.723037 0.69201 0.819669 0.545416 0.940034 0.422968C1.0604 0.30052 1.2028 0.202216 1.36386 0.134956C1.51813 0.0711445 1.68596 0.0349274 1.86058 0.0349274H16.0654C16.2417 0.0349274 16.4096 0.0711445 16.5622 0.134956C16.7215 0.202216 16.8656 0.30052 16.986 0.422968C17.2233 0.664416 17.3691 0.993819 17.3691 1.35944V3.76529H17.3674ZM20.0884 4.9846H5.88181C5.86825 4.9846 5.85638 4.98805 5.84451 4.9915C5.83095 4.99667 5.81908 5.0053 5.81061 5.01565L5.80891 5.01737C5.79874 5.02599 5.79196 5.03806 5.78687 5.05014C5.78179 5.06221 5.78009 5.07428 5.78009 5.08808V19.5404C5.78009 19.5542 5.78348 19.568 5.78687 19.5784C5.79196 19.5905 5.80044 19.6025 5.81061 19.6129L5.814 19.6163C5.82248 19.6249 5.83434 19.6318 5.84451 19.6353C5.85638 19.6405 5.86825 19.6422 5.88181 19.6422H20.0867C20.1002 19.6422 20.1138 19.6387 20.124 19.6353L20.1273 19.6336C20.1392 19.6284 20.1494 19.6215 20.1579 19.6111C20.1663 19.6008 20.1748 19.5905 20.1799 19.5784L20.1816 19.5749C20.185 19.5646 20.1867 19.5525 20.1867 19.5387V5.08635C20.1867 5.07256 20.1833 5.06049 20.1799 5.04841L20.1782 5.04496C20.1731 5.03462 20.1663 5.02427 20.1579 5.01565C20.1477 5.0053 20.1358 4.99667 20.124 4.9915C20.1138 4.98805 20.1019 4.9846 20.0884 4.9846Z" fill="#3B3B3B"/>
</g>
<defs>
<clipPath id="clip0_200_489">
<rect width="20.8317" height="20.8317" fill="white" transform="translate(0.558594 0.0349274)"/>
</clipPath>
</defs>
</svg>
