<svg width="22" height="22" viewBox="0 0 22 22" fill="none" xmlns="http://www.w3.org/2000/svg">
<mask id="path-1-outside-1_316_754" maskUnits="userSpaceOnUse" x="0" y="0" width="22" height="22" fill="black">
<rect fill="white" width="22" height="22"/>
<path d="M19.9704 8.77778H18.0993C17.7985 8.77778 17.5507 8.61222 17.4356 8.33444C17.3204 8.05667 17.3789 7.76407 17.5911 7.55148L18.9141 6.22889C19.1085 6.03444 19.2156 5.77556 19.2156 5.50074C19.2156 5.22556 19.1085 4.96704 18.9141 4.77222L17.2278 3.08593C16.8389 2.69704 16.1607 2.6963 15.7711 3.08593L14.4485 4.40852C14.2359 4.62074 13.9426 4.68 13.6656 4.56444C13.3878 4.44926 13.2222 4.20148 13.2222 3.90074V2.02963C13.2222 1.46185 12.7604 1 12.1926 1H9.80741C9.23963 1 8.77778 1.46185 8.77778 2.02963V3.90074C8.77778 4.20148 8.61222 4.44926 8.33444 4.56444C8.05741 4.68037 7.76407 4.62074 7.55148 4.40852L6.22889 3.08593C5.83926 2.6963 5.16111 2.69704 4.77222 3.08593L3.08593 4.77222C2.89148 4.96667 2.78444 5.22556 2.78444 5.50074C2.78444 5.77556 2.89148 6.03407 3.08593 6.22889L4.40889 7.55148C4.62111 7.76407 4.67926 8.05667 4.56444 8.33444C4.44963 8.61222 4.20148 8.77778 3.90074 8.77778H2.02963C1.46185 8.77778 1 9.23963 1 9.80741V12.1922C1 12.7604 1.46185 13.2222 2.02963 13.2222H3.90074C4.20148 13.2222 4.44926 13.3878 4.56444 13.6656C4.67963 13.9433 4.62111 14.2359 4.40889 14.4485L3.08593 15.7711C2.89148 15.9656 2.78444 16.2244 2.78444 16.4993C2.78444 16.7744 2.89148 17.033 3.08593 17.2278L4.77222 18.9141C5.16148 19.3033 5.83926 19.3041 6.22889 18.9141L7.55148 17.5911C7.76407 17.3789 8.0563 17.3204 8.33444 17.4356C8.61222 17.5507 8.77778 17.7985 8.77778 18.0993V19.9704C8.77778 20.5381 9.23963 21 9.80741 21H12.1922C12.76 21 13.2219 20.5381 13.2219 19.9704V18.0993C13.2219 17.7985 13.3874 17.5507 13.6652 17.4356C13.9433 17.32 14.2356 17.3789 14.4481 17.5911L15.7707 18.9141C16.1604 19.3037 16.8385 19.303 17.2274 18.9141L18.9137 17.2278C19.1081 17.0333 19.2152 16.7744 19.2152 16.4993C19.2152 16.2244 19.1081 15.9659 18.9137 15.7711L17.5907 14.4485C17.3785 14.2359 17.3204 13.9433 17.4352 13.6656C17.55 13.3878 17.7985 13.2222 18.0993 13.2222H19.9704C20.5381 13.2222 21 12.7604 21 12.1926V9.80741C21 9.23963 20.5381 8.77778 19.9704 8.77778ZM20.2593 12.1926C20.2593 12.3519 20.1296 12.4815 19.9704 12.4815H18.0993C17.4978 12.4815 16.9811 12.8267 16.7511 13.3822C16.5207 13.9378 16.6419 14.5474 17.0674 14.9726L18.3904 16.2952C18.5033 16.4081 18.5033 16.5915 18.3904 16.7041L16.7041 18.3904C16.5915 18.503 16.4081 18.5037 16.2952 18.3904L14.9726 17.0674C14.547 16.6419 13.9378 16.5215 13.3822 16.7511C12.8267 16.9811 12.4815 17.4978 12.4815 18.0993V19.9704C12.4815 20.1296 12.3519 20.2593 12.1926 20.2593H9.80741C9.64815 20.2593 9.51852 20.1296 9.51852 19.9704V18.0993C9.51852 17.4978 9.17333 16.9811 8.61778 16.7511C8.43148 16.6737 8.23963 16.6359 8.05 16.6359C7.67444 16.6359 7.31037 16.7841 7.02741 17.067L5.70481 18.39C5.59148 18.5033 5.40815 18.5026 5.29593 18.39L3.60963 16.7037C3.49667 16.5907 3.49667 16.4074 3.60963 16.2948L4.93259 14.9722C5.35778 14.547 5.47926 13.9374 5.24889 13.3819C5.01889 12.8267 4.50222 12.4815 3.90074 12.4815H2.02963C1.87037 12.4815 1.74074 12.3519 1.74074 12.1926V9.80741C1.74074 9.64815 1.87037 9.51852 2.02963 9.51852H3.90074C4.50222 9.51852 5.01889 9.17333 5.24889 8.61778C5.47926 8.06222 5.35815 7.45259 4.93259 7.02741L3.60963 5.70481C3.49667 5.59185 3.49667 5.40852 3.60963 5.29593L5.29593 3.60963C5.40852 3.49667 5.59185 3.49667 5.70481 3.60963L7.02741 4.93222C7.45222 5.35704 8.06148 5.47889 8.61778 5.24852C9.17333 5.01889 9.51852 4.50222 9.51852 3.90074V2.02963C9.51852 1.87037 9.64815 1.74074 9.80741 1.74074H12.1922C12.3519 1.74074 12.4815 1.87037 12.4815 2.02963V3.90074C12.4815 4.50222 12.8267 5.01889 13.3822 5.24889C13.9385 5.47926 14.5474 5.35778 14.9726 4.93259L16.2952 3.61C16.4085 3.49704 16.5919 3.49704 16.7041 3.61L18.3904 5.2963C18.5033 5.40926 18.5033 5.59259 18.3904 5.70519L17.0674 7.02778C16.6422 7.45296 16.5207 8.06259 16.7511 8.61815C16.9811 9.1737 17.4978 9.51889 18.0993 9.51889H19.9704C20.1296 9.51852 20.2593 9.64815 20.2593 9.80741V12.1926Z"/>
</mask>
<path d="M19.9704 8.77778H18.0993C17.7985 8.77778 17.5507 8.61222 17.4356 8.33444C17.3204 8.05667 17.3789 7.76407 17.5911 7.55148L18.9141 6.22889C19.1085 6.03444 19.2156 5.77556 19.2156 5.50074C19.2156 5.22556 19.1085 4.96704 18.9141 4.77222L17.2278 3.08593C16.8389 2.69704 16.1607 2.6963 15.7711 3.08593L14.4485 4.40852C14.2359 4.62074 13.9426 4.68 13.6656 4.56444C13.3878 4.44926 13.2222 4.20148 13.2222 3.90074V2.02963C13.2222 1.46185 12.7604 1 12.1926 1H9.80741C9.23963 1 8.77778 1.46185 8.77778 2.02963V3.90074C8.77778 4.20148 8.61222 4.44926 8.33444 4.56444C8.05741 4.68037 7.76407 4.62074 7.55148 4.40852L6.22889 3.08593C5.83926 2.6963 5.16111 2.69704 4.77222 3.08593L3.08593 4.77222C2.89148 4.96667 2.78444 5.22556 2.78444 5.50074C2.78444 5.77556 2.89148 6.03407 3.08593 6.22889L4.40889 7.55148C4.62111 7.76407 4.67926 8.05667 4.56444 8.33444C4.44963 8.61222 4.20148 8.77778 3.90074 8.77778H2.02963C1.46185 8.77778 1 9.23963 1 9.80741V12.1922C1 12.7604 1.46185 13.2222 2.02963 13.2222H3.90074C4.20148 13.2222 4.44926 13.3878 4.56444 13.6656C4.67963 13.9433 4.62111 14.2359 4.40889 14.4485L3.08593 15.7711C2.89148 15.9656 2.78444 16.2244 2.78444 16.4993C2.78444 16.7744 2.89148 17.033 3.08593 17.2278L4.77222 18.9141C5.16148 19.3033 5.83926 19.3041 6.22889 18.9141L7.55148 17.5911C7.76407 17.3789 8.0563 17.3204 8.33444 17.4356C8.61222 17.5507 8.77778 17.7985 8.77778 18.0993V19.9704C8.77778 20.5381 9.23963 21 9.80741 21H12.1922C12.76 21 13.2219 20.5381 13.2219 19.9704V18.0993C13.2219 17.7985 13.3874 17.5507 13.6652 17.4356C13.9433 17.32 14.2356 17.3789 14.4481 17.5911L15.7707 18.9141C16.1604 19.3037 16.8385 19.303 17.2274 18.9141L18.9137 17.2278C19.1081 17.0333 19.2152 16.7744 19.2152 16.4993C19.2152 16.2244 19.1081 15.9659 18.9137 15.7711L17.5907 14.4485C17.3785 14.2359 17.3204 13.9433 17.4352 13.6656C17.55 13.3878 17.7985 13.2222 18.0993 13.2222H19.9704C20.5381 13.2222 21 12.7604 21 12.1926V9.80741C21 9.23963 20.5381 8.77778 19.9704 8.77778ZM20.2593 12.1926C20.2593 12.3519 20.1296 12.4815 19.9704 12.4815H18.0993C17.4978 12.4815 16.9811 12.8267 16.7511 13.3822C16.5207 13.9378 16.6419 14.5474 17.0674 14.9726L18.3904 16.2952C18.5033 16.4081 18.5033 16.5915 18.3904 16.7041L16.7041 18.3904C16.5915 18.503 16.4081 18.5037 16.2952 18.3904L14.9726 17.0674C14.547 16.6419 13.9378 16.5215 13.3822 16.7511C12.8267 16.9811 12.4815 17.4978 12.4815 18.0993V19.9704C12.4815 20.1296 12.3519 20.2593 12.1926 20.2593H9.80741C9.64815 20.2593 9.51852 20.1296 9.51852 19.9704V18.0993C9.51852 17.4978 9.17333 16.9811 8.61778 16.7511C8.43148 16.6737 8.23963 16.6359 8.05 16.6359C7.67444 16.6359 7.31037 16.7841 7.02741 17.067L5.70481 18.39C5.59148 18.5033 5.40815 18.5026 5.29593 18.39L3.60963 16.7037C3.49667 16.5907 3.49667 16.4074 3.60963 16.2948L4.93259 14.9722C5.35778 14.547 5.47926 13.9374 5.24889 13.3819C5.01889 12.8267 4.50222 12.4815 3.90074 12.4815H2.02963C1.87037 12.4815 1.74074 12.3519 1.74074 12.1926V9.80741C1.74074 9.64815 1.87037 9.51852 2.02963 9.51852H3.90074C4.50222 9.51852 5.01889 9.17333 5.24889 8.61778C5.47926 8.06222 5.35815 7.45259 4.93259 7.02741L3.60963 5.70481C3.49667 5.59185 3.49667 5.40852 3.60963 5.29593L5.29593 3.60963C5.40852 3.49667 5.59185 3.49667 5.70481 3.60963L7.02741 4.93222C7.45222 5.35704 8.06148 5.47889 8.61778 5.24852C9.17333 5.01889 9.51852 4.50222 9.51852 3.90074V2.02963C9.51852 1.87037 9.64815 1.74074 9.80741 1.74074H12.1922C12.3519 1.74074 12.4815 1.87037 12.4815 2.02963V3.90074C12.4815 4.50222 12.8267 5.01889 13.3822 5.24889C13.9385 5.47926 14.5474 5.35778 14.9726 4.93259L16.2952 3.61C16.4085 3.49704 16.5919 3.49704 16.7041 3.61L18.3904 5.2963C18.5033 5.40926 18.5033 5.59259 18.3904 5.70519L17.0674 7.02778C16.6422 7.45296 16.5207 8.06259 16.7511 8.61815C16.9811 9.1737 17.4978 9.51889 18.0993 9.51889H19.9704C20.1296 9.51852 20.2593 9.64815 20.2593 9.80741V12.1926Z" fill="#3B3B3B"/>
<path d="M19.9704 8.77778H18.0993C17.7985 8.77778 17.5507 8.61222 17.4356 8.33444C17.3204 8.05667 17.3789 7.76407 17.5911 7.55148L18.9141 6.22889C19.1085 6.03444 19.2156 5.77556 19.2156 5.50074C19.2156 5.22556 19.1085 4.96704 18.9141 4.77222L17.2278 3.08593C16.8389 2.69704 16.1607 2.6963 15.7711 3.08593L14.4485 4.40852C14.2359 4.62074 13.9426 4.68 13.6656 4.56444C13.3878 4.44926 13.2222 4.20148 13.2222 3.90074V2.02963C13.2222 1.46185 12.7604 1 12.1926 1H9.80741C9.23963 1 8.77778 1.46185 8.77778 2.02963V3.90074C8.77778 4.20148 8.61222 4.44926 8.33444 4.56444C8.05741 4.68037 7.76407 4.62074 7.55148 4.40852L6.22889 3.08593C5.83926 2.6963 5.16111 2.69704 4.77222 3.08593L3.08593 4.77222C2.89148 4.96667 2.78444 5.22556 2.78444 5.50074C2.78444 5.77556 2.89148 6.03407 3.08593 6.22889L4.40889 7.55148C4.62111 7.76407 4.67926 8.05667 4.56444 8.33444C4.44963 8.61222 4.20148 8.77778 3.90074 8.77778H2.02963C1.46185 8.77778 1 9.23963 1 9.80741V12.1922C1 12.7604 1.46185 13.2222 2.02963 13.2222H3.90074C4.20148 13.2222 4.44926 13.3878 4.56444 13.6656C4.67963 13.9433 4.62111 14.2359 4.40889 14.4485L3.08593 15.7711C2.89148 15.9656 2.78444 16.2244 2.78444 16.4993C2.78444 16.7744 2.89148 17.033 3.08593 17.2278L4.77222 18.9141C5.16148 19.3033 5.83926 19.3041 6.22889 18.9141L7.55148 17.5911C7.76407 17.3789 8.0563 17.3204 8.33444 17.4356C8.61222 17.5507 8.77778 17.7985 8.77778 18.0993V19.9704C8.77778 20.5381 9.23963 21 9.80741 21H12.1922C12.76 21 13.2219 20.5381 13.2219 19.9704V18.0993C13.2219 17.7985 13.3874 17.5507 13.6652 17.4356C13.9433 17.32 14.2356 17.3789 14.4481 17.5911L15.7707 18.9141C16.1604 19.3037 16.8385 19.303 17.2274 18.9141L18.9137 17.2278C19.1081 17.0333 19.2152 16.7744 19.2152 16.4993C19.2152 16.2244 19.1081 15.9659 18.9137 15.7711L17.5907 14.4485C17.3785 14.2359 17.3204 13.9433 17.4352 13.6656C17.55 13.3878 17.7985 13.2222 18.0993 13.2222H19.9704C20.5381 13.2222 21 12.7604 21 12.1926V9.80741C21 9.23963 20.5381 8.77778 19.9704 8.77778ZM20.2593 12.1926C20.2593 12.3519 20.1296 12.4815 19.9704 12.4815H18.0993C17.4978 12.4815 16.9811 12.8267 16.7511 13.3822C16.5207 13.9378 16.6419 14.5474 17.0674 14.9726L18.3904 16.2952C18.5033 16.4081 18.5033 16.5915 18.3904 16.7041L16.7041 18.3904C16.5915 18.503 16.4081 18.5037 16.2952 18.3904L14.9726 17.0674C14.547 16.6419 13.9378 16.5215 13.3822 16.7511C12.8267 16.9811 12.4815 17.4978 12.4815 18.0993V19.9704C12.4815 20.1296 12.3519 20.2593 12.1926 20.2593H9.80741C9.64815 20.2593 9.51852 20.1296 9.51852 19.9704V18.0993C9.51852 17.4978 9.17333 16.9811 8.61778 16.7511C8.43148 16.6737 8.23963 16.6359 8.05 16.6359C7.67444 16.6359 7.31037 16.7841 7.02741 17.067L5.70481 18.39C5.59148 18.5033 5.40815 18.5026 5.29593 18.39L3.60963 16.7037C3.49667 16.5907 3.49667 16.4074 3.60963 16.2948L4.93259 14.9722C5.35778 14.547 5.47926 13.9374 5.24889 13.3819C5.01889 12.8267 4.50222 12.4815 3.90074 12.4815H2.02963C1.87037 12.4815 1.74074 12.3519 1.74074 12.1926V9.80741C1.74074 9.64815 1.87037 9.51852 2.02963 9.51852H3.90074C4.50222 9.51852 5.01889 9.17333 5.24889 8.61778C5.47926 8.06222 5.35815 7.45259 4.93259 7.02741L3.60963 5.70481C3.49667 5.59185 3.49667 5.40852 3.60963 5.29593L5.29593 3.60963C5.40852 3.49667 5.59185 3.49667 5.70481 3.60963L7.02741 4.93222C7.45222 5.35704 8.06148 5.47889 8.61778 5.24852C9.17333 5.01889 9.51852 4.50222 9.51852 3.90074V2.02963C9.51852 1.87037 9.64815 1.74074 9.80741 1.74074H12.1922C12.3519 1.74074 12.4815 1.87037 12.4815 2.02963V3.90074C12.4815 4.50222 12.8267 5.01889 13.3822 5.24889C13.9385 5.47926 14.5474 5.35778 14.9726 4.93259L16.2952 3.61C16.4085 3.49704 16.5919 3.49704 16.7041 3.61L18.3904 5.2963C18.5033 5.40926 18.5033 5.59259 18.3904 5.70519L17.0674 7.02778C16.6422 7.45296 16.5207 8.06259 16.7511 8.61815C16.9811 9.1737 17.4978 9.51889 18.0993 9.51889H19.9704C20.1296 9.51852 20.2593 9.64815 20.2593 9.80741V12.1926Z" stroke="#3B3B3B" stroke-width="0.4" mask="url(#path-1-outside-1_316_754)"/>
<mask id="path-2-outside-2_316_754" maskUnits="userSpaceOnUse" x="6.66663" y="6.66675" width="8" height="8" fill="black">
<rect fill="white" x="6.66663" y="6.66675" width="8" height="8"/>
<path d="M11 7.66675C9.16181 7.66675 7.66663 9.16193 7.66663 11.0001C7.66663 12.8382 9.16181 14.3334 11 14.3334C12.8381 14.3334 14.3333 12.8382 14.3333 11.0001C14.3333 9.16193 12.8381 7.66675 11 7.66675ZM11 13.5927C9.5707 13.5927 8.40737 12.4293 8.40737 11.0001C8.40737 9.57082 9.5707 8.40749 11 8.40749C12.4292 8.40749 13.5926 9.57082 13.5926 11.0001C13.5926 12.4293 12.4292 13.5927 11 13.5927Z"/>
</mask>
<path d="M11 7.66675C9.16181 7.66675 7.66663 9.16193 7.66663 11.0001C7.66663 12.8382 9.16181 14.3334 11 14.3334C12.8381 14.3334 14.3333 12.8382 14.3333 11.0001C14.3333 9.16193 12.8381 7.66675 11 7.66675ZM11 13.5927C9.5707 13.5927 8.40737 12.4293 8.40737 11.0001C8.40737 9.57082 9.5707 8.40749 11 8.40749C12.4292 8.40749 13.5926 9.57082 13.5926 11.0001C13.5926 12.4293 12.4292 13.5927 11 13.5927Z" fill="#3B3B3B"/>
<path d="M11 7.66675C9.16181 7.66675 7.66663 9.16193 7.66663 11.0001C7.66663 12.8382 9.16181 14.3334 11 14.3334C12.8381 14.3334 14.3333 12.8382 14.3333 11.0001C14.3333 9.16193 12.8381 7.66675 11 7.66675ZM11 13.5927C9.5707 13.5927 8.40737 12.4293 8.40737 11.0001C8.40737 9.57082 9.5707 8.40749 11 8.40749C12.4292 8.40749 13.5926 9.57082 13.5926 11.0001C13.5926 12.4293 12.4292 13.5927 11 13.5927Z" stroke="#3B3B3B" stroke-width="0.4" mask="url(#path-2-outside-2_316_754)"/>
</svg>