<svg width="27" height="26" viewBox="0 0 27 26" fill="none" xmlns="http://www.w3.org/2000/svg">
<path d="M21.1014 16.7035C19.606 16.7035 18.2725 17.4161 17.4195 18.5174L10.2771 14.5278C10.4445 14.0473 10.5362 13.5291 10.5362 12.9946C10.5362 12.4547 10.4445 11.9419 10.2717 11.456L17.4087 7.47176C18.2563 8.57849 19.5952 9.29651 21.096 9.29651C23.655 9.29651 25.7443 7.21262 25.7443 4.64826C25.7443 2.08389 23.6604 0 21.096 0C18.5317 0 16.4478 2.08389 16.4478 4.64826C16.4478 5.18812 16.5396 5.7064 16.7123 6.18688L9.58066 10.1711C8.73307 9.05897 7.3942 8.34635 5.89337 8.34635C3.3344 8.34635 1.24512 10.4302 1.24512 12.9946C1.24512 15.559 3.3344 17.6429 5.89877 17.6429C7.3996 17.6429 8.73847 16.9248 9.59146 15.8127L16.7285 19.8023C16.5557 20.2882 16.4586 20.8119 16.4586 21.3517C16.4586 23.9107 18.5425 26 21.1068 26C23.6712 26 25.7551 23.9161 25.7551 21.3517C25.7551 18.7874 23.6658 16.7035 21.1014 16.7035ZM21.1014 1.46304C22.8614 1.46304 24.292 2.89369 24.292 4.65365C24.292 6.41362 22.8614 7.84427 21.1014 7.84427C19.3415 7.84427 17.9108 6.41362 17.9108 4.65365C17.9108 2.89369 19.3469 1.46304 21.1014 1.46304ZM5.89877 16.1852C4.1388 16.1852 2.70816 14.7546 2.70816 12.9946C2.70816 11.2346 4.1388 9.80399 5.89877 9.80399C7.65874 9.80399 9.08939 11.2346 9.08939 12.9946C9.08939 14.7546 7.65334 16.1852 5.89877 16.1852ZM21.1014 24.537C19.3415 24.537 17.9108 23.1063 17.9108 21.3463C17.9108 19.5864 19.3415 18.1557 21.1014 18.1557C22.8614 18.1557 24.292 19.5864 24.292 21.3463C24.292 23.1063 22.8614 24.537 21.1014 24.537Z" fill="#3B3B3B"/>
</svg>
