<svg width="28" height="28" viewBox="0 0 28 28" fill="none" xmlns="http://www.w3.org/2000/svg">
<path d="M2.41617 13.5191L2.37185 13.5944L2.41538 13.6701C3.58041 15.6957 5.24968 17.7219 7.23919 19.2431C9.22852 20.7641 11.5464 21.7864 14.0052 21.7864C19.1138 21.7864 23.4354 17.9091 25.5884 13.6515L25.6249 13.5793L25.5845 13.5091C23.3099 9.55199 18.9727 6.21365 14.0052 6.21365C9.10208 6.21365 4.74167 9.57162 2.41617 13.5191ZM14.0052 20.5318C11.2797 20.5318 8.92898 19.1068 7.15056 17.5073C5.44599 15.9742 4.28283 14.2948 3.83916 13.605C4.2683 12.9712 5.36338 11.4873 7.03085 10.1372C8.77388 8.72593 11.1329 7.46819 14.0052 7.46819C16.9393 7.46819 19.3111 8.73618 21.0456 10.1531C22.7077 11.511 23.7768 12.9995 24.1834 13.6184C23.793 14.2936 22.7353 15.9701 21.0721 17.5034C19.3397 19.1005 16.9621 20.5318 14.0052 20.5318ZM18.9166 14C18.9166 11.2827 16.7121 9.07728 13.9957 9.07728C11.2792 9.07728 9.07472 11.2827 9.07472 14C9.07472 16.7173 11.2792 18.9227 13.9957 18.9227C16.7121 18.9227 18.9166 16.7173 18.9166 14ZM13.9957 10.3318C16.0196 10.3318 17.6624 11.9752 17.6624 14C17.6624 16.0249 16.0196 17.6682 13.9957 17.6682C11.9717 17.6682 10.3289 16.0249 10.3289 14C10.3289 11.9752 11.9717 10.3318 13.9957 10.3318Z" fill="#3B3B3B" stroke="#3B3B3B" stroke-width="0.3"/>
</svg>
