<svg width="28" height="28" viewBox="0 0 28 28" fill="none" xmlns="http://www.w3.org/2000/svg">
<g clip-path="url(#clip0_200_468)">
<path d="M14.5299 0.584409L14.4255 0.483104L14.3211 0.584409L13.5382 1.34381L13.5381 1.34378L13.5358 1.34616L5.9111 9.07824L5.80724 9.18356L5.9111 9.28888L7.47689 10.8767L7.58369 10.985L7.6905 10.8767L13.1862 5.30356V23.2325V23.3825H13.3362H15.5147H15.6647V23.2325V5.30356L21.1605 10.8767L21.2673 10.985L21.3741 10.8767L22.9399 9.28888L23.0437 9.18356L22.9399 9.07824L15.3152 1.34616L15.3152 1.34613L15.3128 1.34381L14.5299 0.584409ZM4.62231 25.2916H4.47231V25.4416V27.6508V27.8008H4.62231H24.2287H24.3787V27.6508V25.4416V25.2916H24.2287H4.62231Z" fill="#3B3B3B" stroke="#3B3B3B" stroke-width="0.3"/>
</g>
<defs>
<clipPath id="clip0_200_468">
<rect width="26.9587" height="26.9587" fill="white" transform="translate(0.946045 0.692078)"/>
</clipPath>
</defs>
</svg>
