<svg width="24" height="24" viewBox="0 0 24 24" fill="none" xmlns="http://www.w3.org/2000/svg">
<mask id="path-1-outside-1_75_297" maskUnits="userSpaceOnUse" x="10.0625" y="0.841064" width="14" height="22" fill="black">
<rect fill="white" x="10.0625" y="0.841064" width="14" height="22"/>
<path d="M13.2469 2.49364L18.1969 7.20926H21.2719C22.4719 7.20926 23.0625 7.86551 23.0625 9.00926V14.9905C23.0625 16.1155 22.4531 16.7811 21.2719 16.7811H18.1969L13.2469 21.4968C11.925 22.7436 10.5 22.1905 10.5 20.128V3.86239C10.5094 1.78114 11.9438 1.27489 13.2469 2.49364ZM11.7 19.8093C11.7 21.1686 12.3 20.9436 12.9188 20.3343C14.0531 19.2186 15.9563 17.2124 17.4844 15.5905H20.6719C21.5812 15.5905 21.8719 15.2811 21.8719 14.3905V9.60926C21.8719 8.73739 21.5625 8.40926 20.6719 8.40926H17.6719C16.1156 6.89989 14.1 4.94051 12.9188 3.78739C12.3094 3.18739 11.7 2.83114 11.7 4.23739C11.7 7.16239 11.7 16.9405 11.7 19.8093Z"/>
</mask>
<path d="M13.2469 2.49364L18.1969 7.20926H21.2719C22.4719 7.20926 23.0625 7.86551 23.0625 9.00926V14.9905C23.0625 16.1155 22.4531 16.7811 21.2719 16.7811H18.1969L13.2469 21.4968C11.925 22.7436 10.5 22.1905 10.5 20.128V3.86239C10.5094 1.78114 11.9438 1.27489 13.2469 2.49364ZM11.7 19.8093C11.7 21.1686 12.3 20.9436 12.9188 20.3343C14.0531 19.2186 15.9563 17.2124 17.4844 15.5905H20.6719C21.5812 15.5905 21.8719 15.2811 21.8719 14.3905V9.60926C21.8719 8.73739 21.5625 8.40926 20.6719 8.40926H17.6719C16.1156 6.89989 14.1 4.94051 12.9188 3.78739C12.3094 3.18739 11.7 2.83114 11.7 4.23739C11.7 7.16239 11.7 16.9405 11.7 19.8093Z" fill="#3B3B3B"/>
<path d="M13.2469 2.49364L18.1969 7.20926H21.2719C22.4719 7.20926 23.0625 7.86551 23.0625 9.00926V14.9905C23.0625 16.1155 22.4531 16.7811 21.2719 16.7811H18.1969L13.2469 21.4968C11.925 22.7436 10.5 22.1905 10.5 20.128V3.86239C10.5094 1.78114 11.9438 1.27489 13.2469 2.49364ZM11.7 19.8093C11.7 21.1686 12.3 20.9436 12.9188 20.3343C14.0531 19.2186 15.9563 17.2124 17.4844 15.5905H20.6719C21.5812 15.5905 21.8719 15.2811 21.8719 14.3905V9.60926C21.8719 8.73739 21.5625 8.40926 20.6719 8.40926H17.6719C16.1156 6.89989 14.1 4.94051 12.9188 3.78739C12.3094 3.18739 11.7 2.83114 11.7 4.23739C11.7 7.16239 11.7 16.9405 11.7 19.8093Z" stroke="#3B3B3B" stroke-width="0.6" mask="url(#path-1-outside-1_75_297)"/>
<mask id="path-2-outside-2_75_297" maskUnits="userSpaceOnUse" x="3.97803" y="6.02173" width="5" height="12" fill="black">
<rect fill="white" x="3.97803" y="6.02173" width="5" height="12"/>
<path d="M6.92803 7.2561L6.9374 7.26548C7.04053 7.12485 7.1999 7.02173 7.39678 7.02173C7.71553 7.02173 7.97803 7.28423 7.97803 7.60298C7.97803 7.76235 7.9124 7.90298 7.81865 8.0061C6.87178 9.06548 6.29053 10.4624 6.29053 11.9999C6.29053 13.4999 6.84365 14.8686 7.7624 15.928L7.75303 15.9374C7.88428 16.0499 7.97803 16.1999 7.97803 16.3874C7.97803 16.7061 7.71553 16.9686 7.39678 16.9686C7.20928 16.9686 7.04053 16.8749 6.9374 16.7249L6.92803 16.7342C5.8124 15.4686 5.12803 13.8186 5.12803 11.9905C5.11865 10.1717 5.80303 8.52173 6.92803 7.2561Z"/>
</mask>
<path d="M6.92803 7.2561L6.9374 7.26548C7.04053 7.12485 7.1999 7.02173 7.39678 7.02173C7.71553 7.02173 7.97803 7.28423 7.97803 7.60298C7.97803 7.76235 7.9124 7.90298 7.81865 8.0061C6.87178 9.06548 6.29053 10.4624 6.29053 11.9999C6.29053 13.4999 6.84365 14.8686 7.7624 15.928L7.75303 15.9374C7.88428 16.0499 7.97803 16.1999 7.97803 16.3874C7.97803 16.7061 7.71553 16.9686 7.39678 16.9686C7.20928 16.9686 7.04053 16.8749 6.9374 16.7249L6.92803 16.7342C5.8124 15.4686 5.12803 13.8186 5.12803 11.9905C5.11865 10.1717 5.80303 8.52173 6.92803 7.2561Z" fill="#3B3B3B"/>
<path d="M6.92803 7.2561L6.9374 7.26548C7.04053 7.12485 7.1999 7.02173 7.39678 7.02173C7.71553 7.02173 7.97803 7.28423 7.97803 7.60298C7.97803 7.76235 7.9124 7.90298 7.81865 8.0061C6.87178 9.06548 6.29053 10.4624 6.29053 11.9999C6.29053 13.4999 6.84365 14.8686 7.7624 15.928L7.75303 15.9374C7.88428 16.0499 7.97803 16.1999 7.97803 16.3874C7.97803 16.7061 7.71553 16.9686 7.39678 16.9686C7.20928 16.9686 7.04053 16.8749 6.9374 16.7249L6.92803 16.7342C5.8124 15.4686 5.12803 13.8186 5.12803 11.9905C5.11865 10.1717 5.80303 8.52173 6.92803 7.2561Z" stroke="#3B3B3B" stroke-width="0.6" mask="url(#path-2-outside-2_75_297)"/>
<mask id="path-3-outside-3_75_297" maskUnits="userSpaceOnUse" x="0.521973" y="2.85303" width="6" height="18" fill="black">
<rect fill="white" x="0.521973" y="2.85303" width="6" height="18"/>
<path d="M3.95635 4.1249V4.11553L3.9751 4.1249C4.07822 3.96553 4.24697 3.85303 4.45322 3.85303C4.77197 3.85303 5.03447 4.11553 5.03447 4.43428C5.03447 4.60303 4.95947 4.75303 4.84697 4.85615C3.14072 6.6374 2.09072 9.0374 2.09072 11.6999C2.09072 14.578 3.32822 17.1562 5.2876 18.9655L5.27822 18.9749C5.42822 19.078 5.52197 19.2468 5.52197 19.4437C5.52197 19.7624 5.25947 20.0249 4.94072 20.0249C4.73447 20.0249 4.56572 19.9124 4.4626 19.7624L4.45322 19.7718C2.29697 17.7562 0.928223 14.8968 0.928223 11.7093C0.937598 8.76553 2.09072 6.10303 3.95635 4.1249Z"/>
</mask>
<path d="M3.95635 4.1249V4.11553L3.9751 4.1249C4.07822 3.96553 4.24697 3.85303 4.45322 3.85303C4.77197 3.85303 5.03447 4.11553 5.03447 4.43428C5.03447 4.60303 4.95947 4.75303 4.84697 4.85615C3.14072 6.6374 2.09072 9.0374 2.09072 11.6999C2.09072 14.578 3.32822 17.1562 5.2876 18.9655L5.27822 18.9749C5.42822 19.078 5.52197 19.2468 5.52197 19.4437C5.52197 19.7624 5.25947 20.0249 4.94072 20.0249C4.73447 20.0249 4.56572 19.9124 4.4626 19.7624L4.45322 19.7718C2.29697 17.7562 0.928223 14.8968 0.928223 11.7093C0.937598 8.76553 2.09072 6.10303 3.95635 4.1249Z" fill="#3B3B3B"/>
<path d="M3.95635 4.1249V4.11553L3.9751 4.1249C4.07822 3.96553 4.24697 3.85303 4.45322 3.85303C4.77197 3.85303 5.03447 4.11553 5.03447 4.43428C5.03447 4.60303 4.95947 4.75303 4.84697 4.85615C3.14072 6.6374 2.09072 9.0374 2.09072 11.6999C2.09072 14.578 3.32822 17.1562 5.2876 18.9655L5.27822 18.9749C5.42822 19.078 5.52197 19.2468 5.52197 19.4437C5.52197 19.7624 5.25947 20.0249 4.94072 20.0249C4.73447 20.0249 4.56572 19.9124 4.4626 19.7624L4.45322 19.7718C2.29697 17.7562 0.928223 14.8968 0.928223 11.7093C0.937598 8.76553 2.09072 6.10303 3.95635 4.1249Z" stroke="#3B3B3B" stroke-width="0.6" mask="url(#path-3-outside-3_75_297)"/>
</svg>