<svg width="24" height="24" viewBox="0 0 24 24" fill="none" xmlns="http://www.w3.org/2000/svg">
<path d="M13.3493 2.38433L13.3503 2.38528L18.2569 7.05951H21.2719C21.8985 7.05951 22.3906 7.23133 22.7249 7.57619C23.0584 7.92023 23.2125 8.41335 23.2125 9.00951V14.9908C23.2125 15.5793 23.0528 16.0696 22.7174 16.4128C22.3815 16.7566 21.8903 16.9314 21.2719 16.9314H18.2569L13.3503 21.6056L13.3498 21.6061C12.6664 22.2507 11.9152 22.4664 11.315 22.1899C10.7163 21.9141 10.35 21.186 10.35 20.1283L10.35 3.86263L10.35 3.86196C10.3548 2.79481 10.7262 2.07324 11.3269 1.80389C11.9276 1.53451 12.6755 1.7541 13.3493 2.38433ZM12.8135 20.2276L12.8136 20.2276C13.9455 19.1143 15.8465 17.1103 17.3752 15.4879L17.4196 15.4408H17.4844H20.6719C21.1178 15.4408 21.3643 15.363 21.5062 15.2193C21.6485 15.0752 21.7219 14.8282 21.7219 14.3908V9.60951C21.7219 9.18427 21.6449 8.93554 21.4991 8.78796C21.3538 8.64081 21.1055 8.55951 20.6719 8.55951H17.6719H17.6111L17.5674 8.51718C16.0111 7.00775 13.9954 5.04825 12.814 3.89497L12.8135 3.89452C12.6637 3.74699 12.5191 3.61977 12.3877 3.53164C12.2514 3.44024 12.1525 3.40682 12.0885 3.41009C12.0612 3.4115 12.0394 3.41957 12.0188 3.43606C11.9966 3.45393 11.9691 3.48726 11.9425 3.54895C11.8881 3.67564 11.85 3.8925 11.85 4.23763V4.25485V4.27222V4.28975V4.30744V4.32527V4.34327V4.36141V4.37971V4.39816V4.41676V4.43551V4.45441V4.47347V4.49267V4.51201V4.53151V4.55115V4.57094V4.59088V4.61096V4.63118V4.65155V4.67206V4.69272V4.71352V4.73445V4.75553V4.77675V4.79811V4.81961V4.84125V4.86302V4.88493V4.90698V4.92916V4.95148V4.97394V4.99653V5.01925V5.0421V5.06509V5.08821V5.11146V5.13484V5.15835V5.18198V5.20575V5.22965V5.25367V5.27782V5.30209V5.3265V5.35102V5.37567V5.40044V5.42534V5.45036V5.4755V5.50076V5.52615V5.55165V5.57727V5.60301V5.62887V5.65484V5.68094V5.70715V5.73347V5.75991V5.78647V5.81313V5.83992V5.86681V5.89381V5.92093V5.94816V5.9755V6.00294V6.0305V6.05817V6.08594V6.11382V6.1418V6.16989V6.19809V6.22639V6.2548V6.2833V6.31192V6.34063V6.36944V6.39836V6.42737V6.45649V6.4857V6.51502V6.54443V6.57394V6.60354V6.63324V6.66304V6.69293V6.72291V6.75299V6.78316V6.81342V6.84378V6.87422V6.90476V6.93538V6.9661V6.9969V7.0278V7.05877V7.08984V7.12099V7.15223V7.18355V7.21496V7.24645V7.27802V7.30968V7.34141V7.37323V7.40513V7.43711V7.46917V7.50131V7.53352V7.56581V7.59818V7.63063V7.66315V7.69575V7.72842V7.76116V7.79398V7.82687V7.85983V7.89287V7.92597V7.95915V7.99239V8.0257V8.05908V8.09253V8.12605V8.15963V8.19328V8.22699V8.26077V8.29461V8.32852V8.36248V8.39651V8.43061V8.46476V8.49897V8.53324V8.56757V8.60196V8.63641V8.67092V8.70548V8.74009V8.77477V8.80949V8.84428V8.87911V8.914V8.94894V8.98393V9.01897V9.05407V9.08921V9.1244V9.15964V9.19493V9.23027V9.26565V9.30108V9.33655V9.37207V9.40764V9.44324V9.47889V9.51459V9.55032V9.5861V9.62191V9.65777V9.69366V9.7296V9.76557V9.80158V9.83763V9.87371V9.90983V9.94598V9.98217V10.0184V10.0546V10.0909V10.1273V10.1636V10.2V10.2364V10.2728V10.3093V10.3458V10.3823V10.4189V10.4555V10.4921V10.5287V10.5654V10.602V10.6387V10.6755V10.7122V10.749V10.7858V10.8226V10.8594V10.8963V10.9331V10.97V11.0069V11.0438V11.0808V11.1177V11.1547V11.1917V11.2287V11.2657V11.3027V11.3397V11.3767V11.4138V11.4509V11.4879V11.525V11.5621V11.5992V11.6363V11.6734V11.7105V11.7476V11.7847V11.8219V11.859V11.8961V11.9333V11.9704V12.0075V12.0447V12.0818V12.1189V12.1561V12.1932V12.2303V12.2674V12.3046V12.3417V12.3788V12.4159V12.453V12.49V12.5271V12.5642V12.6013V12.6383V12.6753V12.7124V12.7494V12.7864V12.8234V12.8604V12.8973V12.9343V12.9712V13.0081V13.045V13.0819V13.1188V13.1556V13.1924V13.2293V13.266V13.3028V13.3396V13.3763V13.413V13.4497V13.4863V13.5229V13.5595V13.5961V13.6327V13.6692V13.7057V13.7422V13.7786V13.815V13.8514V13.8877V13.924V13.9603V13.9966V14.0328V14.069V14.1051V14.1413V14.1773V14.2134V14.2494V14.2854V14.3213V14.3572V14.393V14.4288V14.4646V14.5003V14.536V14.5717V14.6073V14.6428V14.6784V14.7138V14.7493V14.7846V14.82V14.8552V14.8905V14.9257V14.9608V14.9959V15.0309V15.0659V15.1009V15.1357V15.1706V15.2053V15.2401V15.2747V15.3093V15.3439V15.3784V15.4128V15.4472V15.4816V15.5158V15.55V15.5842V15.6183V15.6523V15.6862V15.7201V15.754V15.7878V15.8215V15.8551V15.8887V15.9222V15.9556V15.989V16.0223V16.0556V16.0887V16.1218V16.1548V16.1878V16.2207V16.2535V16.2862V16.3189V16.3515V16.384V16.4164V16.4488V16.4811V16.5133V16.5454V16.5775V16.6094V16.6413V16.6732V16.7049V16.7365V16.7681V16.7996V16.831V16.8623V16.8935V16.9247V16.9557V16.9867V17.0176V17.0484V17.0791V17.1097V17.1402V17.1707V17.201V17.2313V17.2614V17.2915V17.3215V17.3514V17.3811V17.4108V17.4404V17.4699V17.4993V17.5286V17.5578V17.5869V17.6159V17.6449V17.6737V17.7024V17.731V17.7595V17.7879V17.8161V17.8443V17.8724V17.9004V17.9283V17.956V17.9837V18.0112V18.0387V18.066V18.0932V18.1203V18.1473V18.1742V18.201V18.2276V18.2542V18.2806V18.3069V18.3331V18.3592V18.3852V18.411V18.4367V18.4623V18.4878V18.5132V18.5385V18.5636V18.5886V18.6135V18.6382V18.6629V18.6874V18.7118V18.736V18.7602V18.7842V18.8081V18.8318V18.8555V18.879V18.9023V18.9256V18.9487V18.9716V18.9945V19.0172V19.0398V19.0622V19.0845V19.1067V19.1287V19.1506V19.1724V19.194V19.2155V19.2368V19.258V19.2791V19.3V19.3208V19.3415V19.362V19.3823V19.4025V19.4226V19.4425V19.4623V19.4819V19.5014V19.5207V19.5399V19.559V19.5779V19.5966V19.6152V19.6336V19.6519V19.67V19.688V19.7058V19.7235V19.741V19.7584V19.7756V19.7926V19.8095C11.85 20.1419 11.8872 20.3598 11.9422 20.4937C11.9951 20.6226 12.0548 20.6545 12.1018 20.6623C12.1629 20.6724 12.2577 20.6511 12.3904 20.5719C12.5192 20.495 12.663 20.3759 12.8135 20.2276Z" fill="#3B3B3B" stroke="#3B3B3B" stroke-width="0.3"/>
<path d="M7.5 9L1 15.5" stroke="#3B3B3B" stroke-width="1.5" stroke-linecap="round"/>
<path d="M7.5 15.5L1 9" stroke="#3B3B3B" stroke-width="1.5" stroke-linecap="round"/>
</svg>