<svg width="29" height="28" viewBox="0 0 29 28" fill="none" xmlns="http://www.w3.org/2000/svg">
<path d="M2.70831 15.5208L2.88547 15.9479C3.90209 22.0076 9.17223 26.625 15.5208 26.625C22.597 26.625 28.3333 20.8887 28.3333 13.8125C28.3333 6.73635 22.597 1 15.5208 1C9.17223 1 3.90209 5.61738 2.88547 11.6771V11.9769" stroke="#3B3B3B" stroke-width="1.2"/>
<circle cx="15.5208" cy="13.8125" r="2.5625" fill="#3B3B3B"/>
<line y1="-0.5" x2="25.4266" y2="-0.5" transform="matrix(0.581683 -0.813416 0.80068 0.599092 8.26575 24.1537)" stroke="#3B3B3B"/>
<line x1="15.875" y1="26.625" x2="15.875" y2="0.999996" stroke="#3B3B3B"/>
<line y1="-0.5" x2="25.3367" y2="-0.5" transform="matrix(0.946801 -0.321819 0.308963 0.951074 3.5625 18.2136)" stroke="#3B3B3B"/>
<line y1="-0.5" x2="25.1153" y2="-0.5" transform="matrix(0.940948 0.338551 -0.325184 0.945651 3.5625 9.28107)" stroke="#3B3B3B"/>
<line y1="-0.5" x2="25.432" y2="-0.5" transform="matrix(0.57358 0.819149 -0.806671 0.591001 7.74127 3.258)" stroke="#3B3B3B"/>
<path d="M1 12.1599V15.4651C1 15.8958 1.44043 16.1862 1.83635 16.0166L5.69236 14.364C6.17723 14.1562 6.17723 13.4688 5.69236 13.261L1.83635 11.6084C1.44043 11.4388 1 11.7292 1 12.1599Z" stroke="#3B3B3B"/>
</svg>