<svg width="24" height="24" viewBox="0 0 24 24" fill="none" xmlns="http://www.w3.org/2000/svg">
<rect width="24" height="24" fill="#1E1E1E"/>
<g clip-path="url(#clip0_0_1)">
<rect width="430" height="1200" transform="translate(-140 -144)" fill="#F8F8F8"/>
<path d="M-109.296 17.848C-108.08 17.848 -107.029 18.0773 -106.144 18.536C-105.248 18.984 -104.565 19.6293 -104.096 20.472C-103.616 21.3147 -103.376 22.3067 -103.376 23.448C-103.376 24.5893 -103.616 25.5813 -104.096 26.424C-104.565 27.256 -105.248 27.896 -106.144 28.344C-107.029 28.7813 -108.08 29 -109.296 29H-112.768V17.848H-109.296ZM-109.296 27.8C-107.856 27.8 -106.757 27.4213 -106 26.664C-105.243 25.896 -104.864 24.824 -104.864 23.448C-104.864 22.0613 -105.248 20.9787 -106.016 20.2C-106.773 19.4213 -107.867 19.032 -109.296 19.032H-111.312V27.8H-109.296ZM-93.4555 24.28C-93.4555 24.5573 -93.4715 24.8507 -93.5035 25.16H-100.511C-100.458 26.024 -100.165 26.7013 -99.6315 27.192C-99.0875 27.672 -98.4315 27.912 -97.6635 27.912C-97.0342 27.912 -96.5115 27.768 -96.0955 27.48C-95.6688 27.1813 -95.3702 26.7867 -95.1995 26.296H-93.6315C-93.8662 27.1387 -94.3355 27.8267 -95.0395 28.36C-95.7435 28.8827 -96.6182 29.144 -97.6635 29.144C-98.4955 29.144 -99.2422 28.9573 -99.9035 28.584C-100.554 28.2107 -101.066 27.6827 -101.439 27C-101.813 26.3067 -101.999 25.5067 -101.999 24.6C-101.999 23.6933 -101.818 22.8987 -101.455 22.216C-101.093 21.5333 -100.586 21.0107 -99.9355 20.648C-99.2742 20.2747 -98.5168 20.088 -97.6635 20.088C-96.8315 20.088 -96.0955 20.2693 -95.4555 20.632C-94.8155 20.9947 -94.3248 21.496 -93.9835 22.136C-93.6315 22.7653 -93.4555 23.48 -93.4555 24.28ZM-94.9595 23.976C-94.9595 23.4213 -95.0822 22.9467 -95.3275 22.552C-95.5728 22.1467 -95.9088 21.8427 -96.3355 21.64C-96.7515 21.4267 -97.2155 21.32 -97.7275 21.32C-98.4635 21.32 -99.0928 21.5547 -99.6155 22.024C-100.127 22.4933 -100.421 23.144 -100.495 23.976H-94.9595ZM-92.0776 24.6C-92.0776 23.6933 -91.8963 22.904 -91.5336 22.232C-91.171 21.5493 -90.6696 21.0213 -90.0296 20.648C-89.379 20.2747 -88.6376 20.088 -87.8056 20.088C-86.7283 20.088 -85.843 20.3493 -85.1496 20.872C-84.4456 21.3947 -83.9816 22.12 -83.7576 23.048H-85.3256C-85.475 22.5147 -85.7683 22.0933 -86.2056 21.784C-86.6323 21.4747 -87.1656 21.32 -87.8056 21.32C-88.6376 21.32 -89.3096 21.608 -89.8216 22.184C-90.3336 22.7493 -90.5896 23.5547 -90.5896 24.6C-90.5896 25.656 -90.3336 26.472 -89.8216 27.048C-89.3096 27.624 -88.6376 27.912 -87.8056 27.912C-87.1656 27.912 -86.6323 27.7627 -86.2056 27.464C-85.779 27.1653 -85.4856 26.7387 -85.3256 26.184H-83.7576C-83.9923 27.08 -84.4616 27.8 -85.1656 28.344C-85.8696 28.8773 -86.7496 29.144 -87.8056 29.144C-88.6376 29.144 -89.379 28.9573 -90.0296 28.584C-90.6696 28.2107 -91.171 27.6827 -91.5336 27C-91.8963 26.3173 -92.0776 25.5173 -92.0776 24.6ZM-81.0629 18.808C-81.3402 18.808 -81.5749 18.712 -81.7669 18.52C-81.9589 18.328 -82.0549 18.0933 -82.0549 17.816C-82.0549 17.5387 -81.9589 17.304 -81.7669 17.112C-81.5749 16.92 -81.3402 16.824 -81.0629 16.824C-80.7962 16.824 -80.5722 16.92 -80.3909 17.112C-80.1989 17.304 -80.1029 17.5387 -80.1029 17.816C-80.1029 18.0933 -80.1989 18.328 -80.3909 18.52C-80.5722 18.712 -80.7962 18.808 -81.0629 18.808ZM-80.3589 20.232V29H-81.8149V20.232H-80.3589ZM-78.4214 24.584C-78.4214 23.688 -78.24 22.904 -77.8774 22.232C-77.5147 21.5493 -77.0187 21.0213 -76.3894 20.648C-75.7494 20.2747 -75.0347 20.088 -74.2454 20.088C-73.5627 20.088 -72.928 20.248 -72.3414 20.568C-71.7547 20.8773 -71.3067 21.288 -70.9974 21.8V17.16H-69.5254V29H-70.9974V27.352C-71.2854 27.8747 -71.712 28.3067 -72.2774 28.648C-72.8427 28.9787 -73.504 29.144 -74.2614 29.144C-75.04 29.144 -75.7494 28.952 -76.3894 28.568C-77.0187 28.184 -77.5147 27.6453 -77.8774 26.952C-78.24 26.2587 -78.4214 25.4693 -78.4214 24.584ZM-70.9974 24.6C-70.9974 23.9387 -71.1307 23.3627 -71.3974 22.872C-71.664 22.3813 -72.0267 22.008 -72.4854 21.752C-72.9334 21.4853 -73.4294 21.352 -73.9734 21.352C-74.5174 21.352 -75.0134 21.48 -75.4614 21.736C-75.9094 21.992 -76.2667 22.3653 -76.5334 22.856C-76.8 23.3467 -76.9334 23.9227 -76.9334 24.584C-76.9334 25.256 -76.8 25.8427 -76.5334 26.344C-76.2667 26.8347 -75.9094 27.2133 -75.4614 27.48C-75.0134 27.736 -74.5174 27.864 -73.9734 27.864C-73.4294 27.864 -72.9334 27.736 -72.4854 27.48C-72.0267 27.2133 -71.664 26.8347 -71.3974 26.344C-71.1307 25.8427 -70.9974 25.2613 -70.9974 24.6ZM-59.0649 24.28C-59.0649 24.5573 -59.0809 24.8507 -59.1129 25.16H-66.1209C-66.0675 26.024 -65.7742 26.7013 -65.2409 27.192C-64.6969 27.672 -64.0409 27.912 -63.2729 27.912C-62.6435 27.912 -62.1209 27.768 -61.7049 27.48C-61.2782 27.1813 -60.9795 26.7867 -60.8089 26.296H-59.2409C-59.4755 27.1387 -59.9449 27.8267 -60.6489 28.36C-61.3529 28.8827 -62.2275 29.144 -63.2729 29.144C-64.1049 29.144 -64.8515 28.9573 -65.5129 28.584C-66.1635 28.2107 -66.6755 27.6827 -67.0489 27C-67.4222 26.3067 -67.6089 25.5067 -67.6089 24.6C-67.6089 23.6933 -67.4275 22.8987 -67.0649 22.216C-66.7022 21.5333 -66.1955 21.0107 -65.5449 20.648C-64.8835 20.2747 -64.1262 20.088 -63.2729 20.088C-62.4409 20.088 -61.7049 20.2693 -61.0649 20.632C-60.4249 20.9947 -59.9342 21.496 -59.5929 22.136C-59.2409 22.7653 -59.0649 23.48 -59.0649 24.28ZM-60.5689 23.976C-60.5689 23.4213 -60.6915 22.9467 -60.9369 22.552C-61.1822 22.1467 -61.5182 21.8427 -61.9449 21.64C-62.3609 21.4267 -62.8249 21.32 -63.3369 21.32C-64.0729 21.32 -64.7022 21.5547 -65.2249 22.024C-65.7369 22.4933 -66.0302 23.144 -66.1049 23.976H-60.5689ZM-45.3254 20.232L-50.6054 33.128H-52.1094L-50.3814 28.904L-53.9174 20.232H-52.3014L-49.5494 27.336L-46.8294 20.232H-45.3254ZM-35.8617 24.28C-35.8617 24.5573 -35.8777 24.8507 -35.9097 25.16H-42.9177C-42.8644 26.024 -42.5711 26.7013 -42.0377 27.192C-41.4937 27.672 -40.8377 27.912 -40.0697 27.912C-39.4404 27.912 -38.9177 27.768 -38.5017 27.48C-38.0751 27.1813 -37.7764 26.7867 -37.6057 26.296H-36.0377C-36.2724 27.1387 -36.7417 27.8267 -37.4457 28.36C-38.1497 28.8827 -39.0244 29.144 -40.0697 29.144C-40.9017 29.144 -41.6484 28.9573 -42.3097 28.584C-42.9604 28.2107 -43.4724 27.6827 -43.8457 27C-44.2191 26.3067 -44.4057 25.5067 -44.4057 24.6C-44.4057 23.6933 -44.2244 22.8987 -43.8617 22.216C-43.4991 21.5333 -42.9924 21.0107 -42.3417 20.648C-41.6804 20.2747 -40.9231 20.088 -40.0697 20.088C-39.2377 20.088 -38.5017 20.2693 -37.8617 20.632C-37.2217 20.9947 -36.7311 21.496 -36.3897 22.136C-36.0377 22.7653 -35.8617 23.48 -35.8617 24.28ZM-37.3657 23.976C-37.3657 23.4213 -37.4884 22.9467 -37.7337 22.552C-37.9791 22.1467 -38.3151 21.8427 -38.7417 21.64C-39.1577 21.4267 -39.6217 21.32 -40.1337 21.32C-40.8697 21.32 -41.4991 21.5547 -42.0217 22.024C-42.5337 22.4933 -42.8271 23.144 -42.9017 23.976H-37.3657ZM-30.8359 29.144C-31.5079 29.144 -32.1105 29.032 -32.6439 28.808C-33.1772 28.5733 -33.5985 28.2533 -33.9079 27.848C-34.2172 27.432 -34.3879 26.9573 -34.4199 26.424H-32.9159C-32.8732 26.8613 -32.6705 27.2187 -32.3079 27.496C-31.9345 27.7733 -31.4492 27.912 -30.8519 27.912C-30.2972 27.912 -29.8599 27.7893 -29.5399 27.544C-29.2199 27.2987 -29.0599 26.9893 -29.0599 26.616C-29.0599 26.232 -29.2305 25.9493 -29.5719 25.768C-29.9132 25.576 -30.4412 25.3893 -31.1559 25.208C-31.8065 25.0373 -32.3399 24.8667 -32.7559 24.696C-33.1612 24.5147 -33.5132 24.2533 -33.8119 23.912C-34.0999 23.56 -34.2439 23.1013 -34.2439 22.536C-34.2439 22.088 -34.1105 21.6773 -33.8439 21.304C-33.5772 20.9307 -33.1985 20.6373 -32.7079 20.424C-32.2172 20.2 -31.6572 20.088 -31.0279 20.088C-30.0572 20.088 -29.2732 20.3333 -28.6759 20.824C-28.0785 21.3147 -27.7585 21.9867 -27.7159 22.84H-29.1719C-29.2039 22.3813 -29.3905 22.0133 -29.7319 21.736C-30.0625 21.4587 -30.5105 21.32 -31.0759 21.32C-31.5985 21.32 -32.0145 21.432 -32.3239 21.656C-32.6332 21.88 -32.7879 22.1733 -32.7879 22.536C-32.7879 22.824 -32.6972 23.064 -32.5159 23.256C-32.3239 23.4373 -32.0892 23.5867 -31.8119 23.704C-31.5239 23.8107 -31.1292 23.9333 -30.6279 24.072C-29.9985 24.2427 -29.4865 24.4133 -29.0919 24.584C-28.6972 24.744 -28.3612 24.9893 -28.0839 25.32C-27.7959 25.6507 -27.6465 26.0827 -27.6359 26.616C-27.6359 27.096 -27.7692 27.528 -28.0359 27.912C-28.3025 28.296 -28.6812 28.6 -29.1719 28.824C-29.6519 29.0373 -30.2065 29.144 -30.8359 29.144ZM-17.4909 29.144C-18.3122 29.144 -19.0589 28.9573 -19.7309 28.584C-20.3922 28.2107 -20.9149 27.6827 -21.2989 27C-21.6722 26.3067 -21.8589 25.5067 -21.8589 24.6C-21.8589 23.704 -21.6669 22.9147 -21.2829 22.232C-20.8882 21.5387 -20.3549 21.0107 -19.6829 20.648C-19.0109 20.2747 -18.2589 20.088 -17.4269 20.088C-16.5949 20.088 -15.8429 20.2747 -15.1709 20.648C-14.4989 21.0107 -13.9709 21.5333 -13.5869 22.216C-13.1922 22.8987 -12.9949 23.6933 -12.9949 24.6C-12.9949 25.5067 -13.1975 26.3067 -13.6029 27C-13.9975 27.6827 -14.5362 28.2107 -15.2189 28.584C-15.9015 28.9573 -16.6589 29.144 -17.4909 29.144ZM-17.4909 27.864C-16.9682 27.864 -16.4775 27.7413 -16.0189 27.496C-15.5602 27.2507 -15.1922 26.8827 -14.9149 26.392C-14.6269 25.9013 -14.4829 25.304 -14.4829 24.6C-14.4829 23.896 -14.6215 23.2987 -14.8989 22.808C-15.1762 22.3173 -15.5389 21.9547 -15.9869 21.72C-16.4349 21.4747 -16.9202 21.352 -17.4429 21.352C-17.9762 21.352 -18.4669 21.4747 -18.9149 21.72C-19.3522 21.9547 -19.7042 22.3173 -19.9709 22.808C-20.2375 23.2987 -20.3709 23.896 -20.3709 24.6C-20.3709 25.3147 -20.2429 25.9173 -19.9869 26.408C-19.7202 26.8987 -19.3682 27.2667 -18.9309 27.512C-18.4935 27.7467 -18.0135 27.864 -17.4909 27.864ZM-9.6245 21.656C-9.3685 21.1547 -9.00583 20.7653 -8.5365 20.488C-8.0565 20.2107 -7.47517 20.072 -6.7925 20.072V21.576H-7.1765C-8.8085 21.576 -9.6245 22.4613 -9.6245 24.232V29H-11.0805V20.232H-9.6245V21.656ZM3.42588 20.072C4.49254 20.072 5.35654 20.3973 6.01788 21.048C6.67921 21.688 7.00988 22.616 7.00988 23.832V29H5.56988V24.04C5.56988 23.1653 5.35121 22.4987 4.91388 22.04C4.47654 21.5707 3.87921 21.336 3.12188 21.336C2.35388 21.336 1.74054 21.576 1.28188 22.056C0.833875 22.536 0.609875 23.2347 0.609875 24.152V29H-0.846125V20.232H0.609875V21.48C0.897875 21.032 1.28721 20.6853 1.77788 20.44C2.27921 20.1947 2.82854 20.072 3.42588 20.072ZM13.2123 29.144C12.3909 29.144 11.6443 28.9573 10.9723 28.584C10.3109 28.2107 9.78825 27.6827 9.40425 27C9.03092 26.3067 8.84425 25.5067 8.84425 24.6C8.84425 23.704 9.03625 22.9147 9.42025 22.232C9.81492 21.5387 10.3483 21.0107 11.0203 20.648C11.6923 20.2747 12.4443 20.088 13.2763 20.088C14.1083 20.088 14.8603 20.2747 15.5323 20.648C16.2043 21.0107 16.7323 21.5333 17.1163 22.216C17.5109 22.8987 17.7083 23.6933 17.7083 24.6C17.7083 25.5067 17.5056 26.3067 17.1003 27C16.7056 27.6827 16.1669 28.2107 15.4843 28.584C14.8016 28.9573 14.0443 29.144 13.2123 29.144ZM13.2123 27.864C13.7349 27.864 14.2256 27.7413 14.6843 27.496C15.1429 27.2507 15.5109 26.8827 15.7883 26.392C16.0763 25.9013 16.2203 25.304 16.2203 24.6C16.2203 23.896 16.0816 23.2987 15.8043 22.808C15.5269 22.3173 15.1643 21.9547 14.7163 21.72C14.2683 21.4747 13.7829 21.352 13.2603 21.352C12.7269 21.352 12.2363 21.4747 11.7883 21.72C11.3509 21.9547 10.9989 22.3173 10.7323 22.808C10.4656 23.2987 10.3323 23.896 10.3323 24.6C10.3323 25.3147 10.4603 25.9173 10.7163 26.408C10.9829 26.8987 11.3349 27.2667 11.7723 27.512C12.2096 27.7467 12.6896 27.864 13.2123 27.864ZM25.3443 21.864C25.6429 21.3413 26.0803 20.9147 26.6562 20.584C27.2323 20.2533 27.8883 20.088 28.6243 20.088C29.4136 20.088 30.1229 20.2747 30.7523 20.648C31.3816 21.0213 31.8776 21.5493 32.2403 22.232C32.6029 22.904 32.7843 23.688 32.7843 24.584C32.7843 25.4693 32.6029 26.2587 32.2403 26.952C31.8776 27.6453 31.3762 28.184 30.7362 28.568C30.1069 28.952 29.4029 29.144 28.6243 29.144C27.8669 29.144 27.2003 28.9787 26.6243 28.648C26.0589 28.3173 25.6323 27.896 25.3443 27.384V29H23.8883V17.16H25.3443V21.864ZM31.2963 24.584C31.2963 23.9227 31.1629 23.3467 30.8963 22.856C30.6296 22.3653 30.2669 21.992 29.8083 21.736C29.3603 21.48 28.8643 21.352 28.3203 21.352C27.7869 21.352 27.2909 21.4853 26.8323 21.752C26.3843 22.008 26.0216 22.3867 25.7443 22.888C25.4776 23.3787 25.3443 23.9493 25.3443 24.6C25.3443 25.2613 25.4776 25.8427 25.7443 26.344C26.0216 26.8347 26.3843 27.2133 26.8323 27.48C27.2909 27.736 27.7869 27.864 28.3203 27.864C28.8643 27.864 29.3603 27.736 29.8083 27.48C30.2669 27.2133 30.6296 26.8347 30.8963 26.344C31.1629 25.8427 31.2963 25.256 31.2963 24.584ZM42.2528 20.232L36.9728 33.128H35.4688L37.1968 28.904L33.6608 20.232H35.2768L38.0288 27.336L40.7488 20.232H42.2528ZM59.662 20.232L56.926 29H55.422L53.31 22.04L51.198 29H49.694L46.942 20.232H48.43L50.446 27.592L52.622 20.232H54.11L56.238 27.608L58.222 20.232H59.662ZM65.459 20.072C66.1203 20.072 66.7177 20.216 67.251 20.504C67.7843 20.7813 68.2003 21.2027 68.499 21.768C68.8083 22.3333 68.963 23.0213 68.963 23.832V29H67.523V24.04C67.523 23.1653 67.3043 22.4987 66.867 22.04C66.4297 21.5707 65.8323 21.336 65.075 21.336C64.307 21.336 63.6937 21.576 63.235 22.056C62.787 22.536 62.563 23.2347 62.563 24.152V29H61.107V17.16H62.563V21.48C62.851 21.032 63.2457 20.6853 63.747 20.44C64.259 20.1947 64.8297 20.072 65.459 20.072ZM79.3414 24.28C79.3414 24.5573 79.3254 24.8507 79.2934 25.16H72.2854C72.3387 26.024 72.632 26.7013 73.1654 27.192C73.7094 27.672 74.3654 27.912 75.1334 27.912C75.7627 27.912 76.2854 27.768 76.7014 27.48C77.128 27.1813 77.4267 26.7867 77.5974 26.296H79.1654C78.9307 27.1387 78.4614 27.8267 77.7574 28.36C77.0534 28.8827 76.1787 29.144 75.1334 29.144C74.3014 29.144 73.5547 28.9573 72.8934 28.584C72.2427 28.2107 71.7307 27.6827 71.3574 27C70.984 26.3067 70.7974 25.5067 70.7974 24.6C70.7974 23.6933 70.9787 22.8987 71.3414 22.216C71.704 21.5333 72.2107 21.0107 72.8614 20.648C73.5227 20.2747 74.28 20.088 75.1334 20.088C75.9654 20.088 76.7014 20.2693 77.3414 20.632C77.9814 20.9947 78.472 21.496 78.8134 22.136C79.1654 22.7653 79.3414 23.48 79.3414 24.28ZM77.8374 23.976C77.8374 23.4213 77.7147 22.9467 77.4694 22.552C77.224 22.1467 76.888 21.8427 76.4614 21.64C76.0454 21.4267 75.5814 21.32 75.0694 21.32C74.3334 21.32 73.704 21.5547 73.1814 22.024C72.6694 22.4933 72.376 23.144 72.3014 23.976H77.8374ZM89.2633 24.28C89.2633 24.5573 89.2473 24.8507 89.2153 25.16H82.2073C82.2606 26.024 82.5539 26.7013 83.0873 27.192C83.6313 27.672 84.2873 27.912 85.0553 27.912C85.6846 27.912 86.2073 27.768 86.6233 27.48C87.0499 27.1813 87.3486 26.7867 87.5193 26.296H89.0873C88.8526 27.1387 88.3833 27.8267 87.6793 28.36C86.9753 28.8827 86.1006 29.144 85.0553 29.144C84.2233 29.144 83.4766 28.9573 82.8153 28.584C82.1646 28.2107 81.6526 27.6827 81.2793 27C80.9059 26.3067 80.7193 25.5067 80.7193 24.6C80.7193 23.6933 80.9006 22.8987 81.2633 22.216C81.6259 21.5333 82.1326 21.0107 82.7833 20.648C83.4446 20.2747 84.2019 20.088 85.0553 20.088C85.8873 20.088 86.6233 20.2693 87.2633 20.632C87.9033 20.9947 88.3939 21.496 88.7353 22.136C89.0873 22.7653 89.2633 23.48 89.2633 24.28ZM87.7593 23.976C87.7593 23.4213 87.6366 22.9467 87.3913 22.552C87.1459 22.1467 86.8099 21.8427 86.3833 21.64C85.9673 21.4267 85.5033 21.32 84.9913 21.32C84.2553 21.32 83.6259 21.5547 83.1033 22.024C82.5913 22.4933 82.2979 23.144 82.2233 23.976H87.7593ZM92.6411 17.16V29H91.1851V17.16H92.6411Z" fill="#9F9F9F"/>
<g filter="url(#filter0_d_0_1)">
<rect x="-26" y="-85" width="296" height="275" rx="20" fill="white"/>
<rect x="-25.5" y="-84.5" width="295" height="274" rx="19.5" stroke="#E1E1E1"/>
</g>
<rect x="-25.8" y="-13.8" width="295.6" height="51.6" rx="11.8" fill="white" stroke="#E7E7E7" stroke-width="0.4"/>
<mask id="path-5-inside-1_0_1" fill="white">
<path d="M12.884 4.57932e-08C10.3704 0.00452576 7.93803 0.897938 6.01087 2.52453C4.08371 4.15113 2.78393 6.40776 2.33807 8.90114L1.28957 8.50568C1.18976 8.46825 1.08244 8.45574 0.976788 8.46921C0.871135 8.48268 0.77029 8.52174 0.682874 8.58305C0.595458 8.64436 0.524071 8.72609 0.474816 8.82126C0.425561 8.91643 0.399902 9.0222 0.400033 9.12954V12.4773C0.399585 12.5647 0.416338 12.6513 0.449325 12.7322C0.482311 12.8131 0.530876 12.8865 0.59221 12.9483C0.653543 13.0102 0.726429 13.0591 0.80665 13.0924C0.886872 13.1256 0.972839 13.1425 1.05958 13.142C1.13801 13.142 1.21584 13.1281 1.28957 13.1011L2.33807 12.7057C2.69776 14.728 3.62229 16.605 5.00318 18.1163C6.38406 19.6276 8.164 20.7105 10.1341 21.238C12.1042 21.7655 14.1826 21.7156 16.1256 21.0942C18.0685 20.4729 19.7953 19.3058 21.1033 17.7299C22.4113 16.1541 23.2461 14.2349 23.5099 12.1976C23.7737 10.1603 23.4555 8.08947 22.5926 6.22808C21.7297 4.36669 20.3579 2.792 18.6382 1.68884C16.9186 0.585678 14.9224 -0.000189118 12.884 4.57932e-08ZM21.9519 10.8034C21.9526 11.5411 21.864 12.276 21.688 12.992L15.2245 10.8716C15.2245 10.8477 15.2245 10.8239 15.2245 10.8034C15.2245 10.783 15.2245 10.7591 15.2245 10.7352L21.688 8.61818C21.8637 9.33309 21.9523 10.0669 21.9519 10.8034ZM13.6721 8.58068L13.5435 8.53636V1.69091C15.0068 1.79863 16.4214 2.26688 17.6631 3.05455L13.6721 8.58068ZM12.2245 8.53636L12.0993 8.58068L8.10485 3.04091C9.34745 2.25514 10.7616 1.78704 12.2245 1.67727V8.53636ZM12.0993 13.0261C12.1399 13.0261 12.1805 13.0568 12.2245 13.067V19.9159C10.7616 19.8061 9.34745 19.338 8.10485 18.5523L12.0993 13.0261ZM13.5435 13.067C13.5875 13.067 13.6281 13.0398 13.6721 13.0261L17.6631 18.5659C16.4207 19.3521 15.0065 19.8202 13.5435 19.9295V13.067ZM21.2788 7.35341L14.8187 9.47045L14.7375 9.36136L18.7184 3.825C19.8416 4.77591 20.72 5.98644 21.2788 7.35341ZM7.03943 3.825L11.0305 9.36136C11.0035 9.39886 10.9764 9.43295 10.9527 9.47045L4.49258 7.35341C5.04634 5.9872 5.92021 4.77654 7.03943 3.825ZM1.71912 10.0875L3.6301 10.8034L1.71912 11.5193V10.0875ZM5.75079 11.4273C5.87082 11.3739 5.97288 11.2865 6.04453 11.1758C6.11618 11.065 6.15432 10.9356 6.15432 10.8034C6.15432 10.6712 6.11618 10.5418 6.04453 10.431C5.97288 10.3203 5.87082 10.2329 5.75079 10.1795L3.91421 9.49773C3.95818 9.20114 4.0123 8.91136 4.08333 8.625L10.5435 10.742C10.5435 10.7659 10.5435 10.7864 10.5435 10.8102C10.5435 10.8341 10.5435 10.8545 10.5435 10.8784L4.08333 12.992C4.0123 12.7091 3.95818 12.4159 3.91421 12.1227L5.75079 11.4273ZM4.49258 14.25L10.9392 12.1364L11.0204 12.242L7.03943 17.7818C5.91937 16.8297 5.04539 15.6177 4.49258 14.25ZM18.7184 17.7818L14.7375 12.242L14.8187 12.1364L21.2788 14.25C20.7209 15.6185 19.8424 16.8303 18.7184 17.7818Z"/>
</mask>
<path d="M12.884 4.57932e-08C10.3704 0.00452576 7.93803 0.897938 6.01087 2.52453C4.08371 4.15113 2.78393 6.40776 2.33807 8.90114L1.28957 8.50568C1.18976 8.46825 1.08244 8.45574 0.976788 8.46921C0.871135 8.48268 0.77029 8.52174 0.682874 8.58305C0.595458 8.64436 0.524071 8.72609 0.474816 8.82126C0.425561 8.91643 0.399902 9.0222 0.400033 9.12954V12.4773C0.399585 12.5647 0.416338 12.6513 0.449325 12.7322C0.482311 12.8131 0.530876 12.8865 0.59221 12.9483C0.653543 13.0102 0.726429 13.0591 0.80665 13.0924C0.886872 13.1256 0.972839 13.1425 1.05958 13.142C1.13801 13.142 1.21584 13.1281 1.28957 13.1011L2.33807 12.7057C2.69776 14.728 3.62229 16.605 5.00318 18.1163C6.38406 19.6276 8.164 20.7105 10.1341 21.238C12.1042 21.7655 14.1826 21.7156 16.1256 21.0942C18.0685 20.4729 19.7953 19.3058 21.1033 17.7299C22.4113 16.1541 23.2461 14.2349 23.5099 12.1976C23.7737 10.1603 23.4555 8.08947 22.5926 6.22808C21.7297 4.36669 20.3579 2.792 18.6382 1.68884C16.9186 0.585678 14.9224 -0.000189118 12.884 4.57932e-08ZM21.9519 10.8034C21.9526 11.5411 21.864 12.276 21.688 12.992L15.2245 10.8716C15.2245 10.8477 15.2245 10.8239 15.2245 10.8034C15.2245 10.783 15.2245 10.7591 15.2245 10.7352L21.688 8.61818C21.8637 9.33309 21.9523 10.0669 21.9519 10.8034ZM13.6721 8.58068L13.5435 8.53636V1.69091C15.0068 1.79863 16.4214 2.26688 17.6631 3.05455L13.6721 8.58068ZM12.2245 8.53636L12.0993 8.58068L8.10485 3.04091C9.34745 2.25514 10.7616 1.78704 12.2245 1.67727V8.53636ZM12.0993 13.0261C12.1399 13.0261 12.1805 13.0568 12.2245 13.067V19.9159C10.7616 19.8061 9.34745 19.338 8.10485 18.5523L12.0993 13.0261ZM13.5435 13.067C13.5875 13.067 13.6281 13.0398 13.6721 13.0261L17.6631 18.5659C16.4207 19.3521 15.0065 19.8202 13.5435 19.9295V13.067ZM21.2788 7.35341L14.8187 9.47045L14.7375 9.36136L18.7184 3.825C19.8416 4.77591 20.72 5.98644 21.2788 7.35341ZM7.03943 3.825L11.0305 9.36136C11.0035 9.39886 10.9764 9.43295 10.9527 9.47045L4.49258 7.35341C5.04634 5.9872 5.92021 4.77654 7.03943 3.825ZM1.71912 10.0875L3.6301 10.8034L1.71912 11.5193V10.0875ZM5.75079 11.4273C5.87082 11.3739 5.97288 11.2865 6.04453 11.1758C6.11618 11.065 6.15432 10.9356 6.15432 10.8034C6.15432 10.6712 6.11618 10.5418 6.04453 10.431C5.97288 10.3203 5.87082 10.2329 5.75079 10.1795L3.91421 9.49773C3.95818 9.20114 4.0123 8.91136 4.08333 8.625L10.5435 10.742C10.5435 10.7659 10.5435 10.7864 10.5435 10.8102C10.5435 10.8341 10.5435 10.8545 10.5435 10.8784L4.08333 12.992C4.0123 12.7091 3.95818 12.4159 3.91421 12.1227L5.75079 11.4273ZM4.49258 14.25L10.9392 12.1364L11.0204 12.242L7.03943 17.7818C5.91937 16.8297 5.04539 15.6177 4.49258 14.25ZM18.7184 17.7818L14.7375 12.242L14.8187 12.1364L21.2788 14.25C20.7209 15.6185 19.8424 16.8303 18.7184 17.7818Z" fill="#3B3B3B" stroke="white" mask="url(#path-5-inside-1_0_1)"/>
</g>
<defs>
<filter id="filter0_d_0_1" x="-48" y="-106" width="348" height="327" filterUnits="userSpaceOnUse" color-interpolation-filters="sRGB">
<feFlood flood-opacity="0" result="BackgroundImageFix"/>
<feColorMatrix in="SourceAlpha" type="matrix" values="0 0 0 0 0 0 0 0 0 0 0 0 0 0 0 0 0 0 127 0" result="hardAlpha"/>
<feOffset dx="4" dy="5"/>
<feGaussianBlur stdDeviation="13"/>
<feComposite in2="hardAlpha" operator="out"/>
<feColorMatrix type="matrix" values="0 0 0 0 0 0 0 0 0 0 0 0 0 0 0 0 0 0 0.05 0"/>
<feBlend mode="normal" in2="BackgroundImageFix" result="effect1_dropShadow_0_1"/>
<feBlend mode="normal" in="SourceGraphic" in2="effect1_dropShadow_0_1" result="shape"/>
</filter>
<clipPath id="clip0_0_1">
<rect width="430" height="1200" fill="white" transform="translate(-140 -144)"/>
</clipPath>
</defs>
</svg>